<mxfile host="app.diagrams.net" modified="2023-04-19T23:20:44.473Z" agent="Mozilla/5.0 (Macintosh; Intel Mac OS X 10_15_7) AppleWebKit/537.36 (KHTML, like Gecko) Chrome/112.0.0.0 Safari/537.36" etag="fZbiNBLLrXA_PjNhmuSw" version="21.2.0" type="github">
  <diagram name="Page-1" id="vhdeoAgZ6hmMWukYXMYe">
    <mxGraphModel dx="1729" dy="1131" grid="1" gridSize="10" guides="1" tooltips="1" connect="1" arrows="1" fold="1" page="0" pageScale="1" pageWidth="850" pageHeight="1100" math="0" shadow="0">
      <root>
        <mxCell id="0" />
        <mxCell id="1" parent="0" />
        <mxCell id="lQ1aieZwKwsRw9DrgaOx-8" value="" style="rounded=0;whiteSpace=wrap;html=1;fillColor=#b1ddf0;strokeColor=#10739e;" vertex="1" parent="1">
          <mxGeometry x="590" y="9" width="350" height="521" as="geometry" />
        </mxCell>
        <mxCell id="gqm8zF_rN9MROJ56jwGY-46" value="" style="rounded=0;whiteSpace=wrap;html=1;fillColor=#000000;strokeColor=#d6b656;" parent="1" vertex="1">
          <mxGeometry x="-360" y="80" width="200" height="439" as="geometry" />
        </mxCell>
        <mxCell id="gqm8zF_rN9MROJ56jwGY-56" style="edgeStyle=orthogonalEdgeStyle;rounded=0;orthogonalLoop=1;jettySize=auto;html=1;strokeWidth=2;endArrow=oval;endFill=1;" parent="1" edge="1">
          <mxGeometry relative="1" as="geometry">
            <mxPoint x="-164.69" y="423.38" as="sourcePoint" />
            <mxPoint x="520.31" y="426.03" as="targetPoint" />
            <Array as="points">
              <mxPoint x="-164.69" y="426.03" />
              <mxPoint x="445.31" y="426.03" />
            </Array>
          </mxGeometry>
        </mxCell>
        <mxCell id="gqm8zF_rN9MROJ56jwGY-25" value="" style="rounded=0;whiteSpace=wrap;html=1;fillColor=#f5f5f5;fontColor=#333333;strokeColor=#666666;" parent="1" vertex="1">
          <mxGeometry x="-80" y="80" width="560" height="240" as="geometry" />
        </mxCell>
        <mxCell id="gqm8zF_rN9MROJ56jwGY-9" value="" style="rounded=0;whiteSpace=wrap;html=1;fillColor=#C4D2DE;strokeColor=#23445d;dashed=1;dashPattern=1 1;" parent="1" vertex="1">
          <mxGeometry x="600" y="114" width="330" height="403.5" as="geometry" />
        </mxCell>
        <mxCell id="gqm8zF_rN9MROJ56jwGY-24" value="" style="rounded=0;whiteSpace=wrap;html=1;fillColor=#D8E8F5;strokeColor=#23445d;dashed=1;" parent="1" vertex="1">
          <mxGeometry x="612.5" y="277.5" width="307.5" height="230" as="geometry" />
        </mxCell>
        <mxCell id="gqm8zF_rN9MROJ56jwGY-1" value="" style="image;aspect=fixed;html=1;points=[];align=center;fontSize=12;image=img/lib/azure2/devops/Azure_DevOps.svg;" parent="1" vertex="1">
          <mxGeometry x="-80" y="53" width="25" height="25" as="geometry" />
        </mxCell>
        <mxCell id="gqm8zF_rN9MROJ56jwGY-31" style="edgeStyle=orthogonalEdgeStyle;rounded=0;orthogonalLoop=1;jettySize=auto;html=1;strokeWidth=2;" parent="1" source="gqm8zF_rN9MROJ56jwGY-2" target="gqm8zF_rN9MROJ56jwGY-4" edge="1">
          <mxGeometry relative="1" as="geometry">
            <Array as="points">
              <mxPoint x="60" y="130" />
              <mxPoint x="60" y="130" />
            </Array>
          </mxGeometry>
        </mxCell>
        <mxCell id="gqm8zF_rN9MROJ56jwGY-2" value="Azure Repo&lt;br&gt;&lt;i&gt;&lt;b&gt;tdp-spark-hub&lt;/b&gt;&lt;/i&gt;" style="image;sketch=0;aspect=fixed;html=1;points=[];align=center;fontSize=14;image=img/lib/mscae/Azure_Repos.svg;labelBackgroundColor=#F5F5F5;" parent="1" vertex="1">
          <mxGeometry x="-50" y="100" width="45" height="50" as="geometry" />
        </mxCell>
        <mxCell id="gqm8zF_rN9MROJ56jwGY-35" style="edgeStyle=orthogonalEdgeStyle;rounded=0;orthogonalLoop=1;jettySize=auto;html=1;strokeWidth=2;" parent="1" source="gqm8zF_rN9MROJ56jwGY-3" edge="1">
          <mxGeometry relative="1" as="geometry">
            <mxPoint x="440" y="130" as="targetPoint" />
            <Array as="points">
              <mxPoint x="440" y="255" />
              <mxPoint x="440" y="150" />
            </Array>
          </mxGeometry>
        </mxCell>
        <mxCell id="gqm8zF_rN9MROJ56jwGY-3" value="Azure Artifacts" style="image;sketch=0;aspect=fixed;html=1;points=[];align=center;fontSize=14;image=img/lib/mscae/Azure_Artifacts.svg;labelBackgroundColor=#F5F5F5;" parent="1" vertex="1">
          <mxGeometry x="220" y="230" width="50" height="50" as="geometry" />
        </mxCell>
        <mxCell id="gqm8zF_rN9MROJ56jwGY-32" style="edgeStyle=orthogonalEdgeStyle;rounded=0;orthogonalLoop=1;jettySize=auto;html=1;strokeWidth=2;" parent="1" source="gqm8zF_rN9MROJ56jwGY-4" edge="1">
          <mxGeometry relative="1" as="geometry">
            <mxPoint x="290" y="130" as="targetPoint" />
            <Array as="points">
              <mxPoint x="250" y="130" />
              <mxPoint x="250" y="130" />
            </Array>
          </mxGeometry>
        </mxCell>
        <mxCell id="gqm8zF_rN9MROJ56jwGY-33" style="edgeStyle=orthogonalEdgeStyle;rounded=0;orthogonalLoop=1;jettySize=auto;html=1;strokeWidth=2;" parent="1" source="gqm8zF_rN9MROJ56jwGY-4" target="gqm8zF_rN9MROJ56jwGY-3" edge="1">
          <mxGeometry relative="1" as="geometry">
            <Array as="points">
              <mxPoint x="140" y="255" />
            </Array>
          </mxGeometry>
        </mxCell>
        <mxCell id="gqm8zF_rN9MROJ56jwGY-4" value="Build Pipeline" style="image;sketch=0;aspect=fixed;html=1;points=[];align=center;fontSize=14;image=img/lib/mscae/Azure_Pipelines.svg;labelBackgroundColor=#F5F5F5;" parent="1" vertex="1">
          <mxGeometry x="120" y="100" width="50" height="50" as="geometry" />
        </mxCell>
        <mxCell id="gqm8zF_rN9MROJ56jwGY-5" value="" style="verticalLabelPosition=bottom;html=1;verticalAlign=top;align=center;strokeColor=none;fillColor=#00BEF2;shape=mxgraph.azure.visual_studio_online;" parent="1" vertex="1">
          <mxGeometry x="-360" y="58" width="25" height="20" as="geometry" />
        </mxCell>
        <mxCell id="gqm8zF_rN9MROJ56jwGY-6" value="" style="image;aspect=fixed;html=1;points=[];align=center;fontSize=12;image=img/lib/azure2/analytics/Azure_Databricks.svg;" parent="1" vertex="1">
          <mxGeometry x="875" y="133" width="50" height="54.14" as="geometry" />
        </mxCell>
        <mxCell id="gqm8zF_rN9MROJ56jwGY-17" value="Databricks Workspace" style="text;html=1;align=center;verticalAlign=middle;resizable=0;points=[];autosize=1;strokeColor=none;fillColor=none;fontSize=14;fontStyle=1" parent="1" vertex="1">
          <mxGeometry x="600" y="85" width="168" height="29" as="geometry" />
        </mxCell>
        <mxCell id="gqm8zF_rN9MROJ56jwGY-19" value="Virtual devX" style="text;html=1;align=center;verticalAlign=middle;resizable=0;points=[];autosize=1;strokeColor=none;fillColor=none;fontSize=16;fontStyle=1" parent="1" vertex="1">
          <mxGeometry x="805.0000000000001" y="477.50000000000006" width="120" height="30" as="geometry" />
        </mxCell>
        <mxCell id="gqm8zF_rN9MROJ56jwGY-23" value="&lt;div style=&quot;font-family: Menlo, Monaco, &amp;quot;Courier New&amp;quot;, monospace; line-height: 18px; font-size: 14px;&quot;&gt;&lt;span style=&quot;background-color: rgb(196, 210, 222);&quot;&gt;&amp;nbsp;tdp-spark-hub&amp;nbsp;&lt;/span&gt;&lt;/div&gt;" style="text;html=1;align=center;verticalAlign=middle;resizable=0;points=[];autosize=1;strokeColor=none;fillColor=none;fontSize=14;fontColor=#000000;fontStyle=2" parent="1" vertex="1">
          <mxGeometry x="649" y="141.5" width="150" height="30" as="geometry" />
        </mxCell>
        <mxCell id="gqm8zF_rN9MROJ56jwGY-22" value="&lt;div style=&quot;color: rgb(238, 255, 255); background-color: rgb(38, 50, 56); font-family: Menlo, Monaco, &amp;quot;Courier New&amp;quot;, monospace; line-height: 18px; font-size: 12px;&quot;&gt;&amp;nbsp;&amp;lt;user&amp;gt;/databricks-spark-hub.ide&lt;/div&gt;" style="text;html=1;align=center;verticalAlign=middle;resizable=0;points=[];autosize=1;strokeColor=none;fillColor=none;fontSize=12;" parent="1" vertex="1">
          <mxGeometry x="667.2" y="297.5" width="250" height="30" as="geometry" />
        </mxCell>
        <mxCell id="gqm8zF_rN9MROJ56jwGY-27" value="Azure DevOps" style="text;html=1;align=center;verticalAlign=middle;resizable=0;points=[];autosize=1;strokeColor=none;fillColor=none;fontSize=16;fontStyle=1" parent="1" vertex="1">
          <mxGeometry x="-55" y="50.5" width="130" height="30" as="geometry" />
        </mxCell>
        <mxCell id="gqm8zF_rN9MROJ56jwGY-36" style="edgeStyle=orthogonalEdgeStyle;rounded=0;orthogonalLoop=1;jettySize=auto;html=1;strokeWidth=2;startArrow=oval;startFill=1;" parent="1" edge="1">
          <mxGeometry relative="1" as="geometry">
            <mxPoint x="600" y="130" as="targetPoint" />
            <mxPoint x="440" y="130" as="sourcePoint" />
            <Array as="points">
              <mxPoint x="598" y="130" />
            </Array>
          </mxGeometry>
        </mxCell>
        <mxCell id="gqm8zF_rN9MROJ56jwGY-29" value="" style="image;sketch=0;aspect=fixed;html=1;points=[];align=center;fontSize=14;image=img/lib/mscae/Azure_Pipelines.svg;labelBackgroundColor=#F5F5F5;" parent="1" vertex="1">
          <mxGeometry x="290" y="100" width="50" height="50" as="geometry" />
        </mxCell>
        <mxCell id="gqm8zF_rN9MROJ56jwGY-39" value="user&#39;s cluster" style="sketch=0;aspect=fixed;pointerEvents=1;shadow=0;dashed=0;html=1;strokeColor=none;labelPosition=center;verticalLabelPosition=bottom;verticalAlign=top;align=center;fillColor=#00188D;shape=mxgraph.mscae.enterprise.cluster_server;fontSize=16;" parent="1" vertex="1">
          <mxGeometry x="649" y="390" width="56" height="70" as="geometry" />
        </mxCell>
        <mxCell id="gqm8zF_rN9MROJ56jwGY-41" value="&lt;b style=&quot;font-size: 12px;&quot;&gt;Repo&lt;/b&gt;" style="shape=image;html=1;verticalAlign=top;verticalLabelPosition=bottom;labelBackgroundColor=#C4D2DE;imageAspect=0;aspect=fixed;image=https://cdn1.iconfinder.com/data/icons/hawcons/32/698609-icon-96-folders-128.png;fontSize=12;" parent="1" vertex="1">
          <mxGeometry x="620" y="141.5" width="29" height="29" as="geometry" />
        </mxCell>
        <mxCell id="gqm8zF_rN9MROJ56jwGY-43" value="&lt;div style=&quot;font-family: Menlo, Monaco, &amp;quot;Courier New&amp;quot;, monospace; line-height: 18px; font-size: 14px;&quot;&gt;executables&lt;/div&gt;" style="text;html=1;align=center;verticalAlign=middle;resizable=0;points=[];autosize=1;strokeColor=none;fillColor=none;fontSize=14;fontColor=#000000;labelBackgroundColor=#C4D2DE;fontStyle=2" parent="1" vertex="1">
          <mxGeometry x="654" y="210.5" width="120" height="30" as="geometry" />
        </mxCell>
        <mxCell id="gqm8zF_rN9MROJ56jwGY-44" value="&lt;b style=&quot;font-size: 12px;&quot;&gt;Artifacts&lt;/b&gt;" style="shape=image;html=1;verticalAlign=top;verticalLabelPosition=bottom;labelBackgroundColor=#C4D2DE;imageAspect=0;aspect=fixed;image=https://cdn1.iconfinder.com/data/icons/hawcons/32/698609-icon-96-folders-128.png;fontSize=12;imageBackground=#C4D2DE;" parent="1" vertex="1">
          <mxGeometry x="620" y="210.5" width="29" height="29" as="geometry" />
        </mxCell>
        <mxCell id="gqm8zF_rN9MROJ56jwGY-45" value="sync repo" style="shape=image;html=1;verticalAlign=top;verticalLabelPosition=bottom;labelBackgroundColor=#D8E8F5;imageAspect=0;aspect=fixed;image=https://cdn1.iconfinder.com/data/icons/hawcons/32/698609-icon-96-folders-128.png;fontSize=14;" parent="1" vertex="1">
          <mxGeometry x="630" y="297.5" width="29" height="29" as="geometry" />
        </mxCell>
        <mxCell id="gqm8zF_rN9MROJ56jwGY-47" value="VS Code" style="text;html=1;align=center;verticalAlign=middle;resizable=0;points=[];autosize=1;strokeColor=none;fillColor=none;fontSize=16;fontStyle=1" parent="1" vertex="1">
          <mxGeometry x="-335" y="50.5" width="90" height="30" as="geometry" />
        </mxCell>
        <mxCell id="gqm8zF_rN9MROJ56jwGY-54" value="Notebooks" style="text;html=1;align=left;verticalAlign=middle;resizable=0;points=[];autosize=1;strokeColor=none;fillColor=none;" parent="1" vertex="1">
          <mxGeometry x="495" y="100" width="80" height="30" as="geometry" />
        </mxCell>
        <mxCell id="gqm8zF_rN9MROJ56jwGY-55" value="Artifacts&lt;br&gt;Configs&lt;br&gt;&lt;font style=&quot;font-size: 8px;&quot;&gt;(customer specific)&lt;/font&gt;" style="text;html=1;align=left;verticalAlign=middle;resizable=0;points=[];autosize=1;strokeColor=none;fillColor=none;" parent="1" vertex="1">
          <mxGeometry x="495" y="130" width="85" height="55" as="geometry" />
        </mxCell>
        <mxCell id="gqm8zF_rN9MROJ56jwGY-62" value="" style="endArrow=classic;html=1;rounded=0;strokeWidth=2;entryX=-0.002;entryY=0.276;entryDx=0;entryDy=0;entryPerimeter=0;" parent="1" edge="1">
          <mxGeometry width="50" height="50" relative="1" as="geometry">
            <mxPoint x="520.31" y="424.03" as="sourcePoint" />
            <mxPoint x="612.1949999999997" y="375.01" as="targetPoint" />
            <Array as="points">
              <mxPoint x="520.31" y="374.03" />
            </Array>
          </mxGeometry>
        </mxCell>
        <mxCell id="gqm8zF_rN9MROJ56jwGY-63" value="" style="endArrow=classic;html=1;rounded=0;strokeWidth=2;entryX=-0.001;entryY=0.715;entryDx=0;entryDy=0;entryPerimeter=0;" parent="1" edge="1">
          <mxGeometry width="50" height="50" relative="1" as="geometry">
            <mxPoint x="520.31" y="424.03" as="sourcePoint" />
            <mxPoint x="612.5024999999996" y="475.9799999999998" as="targetPoint" />
            <Array as="points">
              <mxPoint x="520.31" y="474.03" />
            </Array>
          </mxGeometry>
        </mxCell>
        <mxCell id="gqm8zF_rN9MROJ56jwGY-65" value="" style="image;sketch=0;aspect=fixed;html=1;points=[];align=center;fontSize=12;image=img/lib/mscae/Databricks.svg;" parent="1" vertex="1">
          <mxGeometry x="-348" y="412.98" width="48.98" height="47.02" as="geometry" />
        </mxCell>
        <mxCell id="gqm8zF_rN9MROJ56jwGY-66" value="Databricks Extension" style="text;html=1;align=center;verticalAlign=middle;resizable=0;points=[];autosize=1;strokeColor=none;fillColor=none;fontSize=16;fontColor=#D8E8F5;" parent="1" vertex="1">
          <mxGeometry x="-335" y="469" width="170" height="30" as="geometry" />
        </mxCell>
        <mxCell id="gqm8zF_rN9MROJ56jwGY-67" value="Databricks CLI" style="text;html=1;align=center;verticalAlign=middle;resizable=0;points=[];autosize=1;strokeColor=none;fillColor=none;fontSize=16;fontColor=#D8E8F5;" parent="1" vertex="1">
          <mxGeometry x="-295" y="433" width="130" height="30" as="geometry" />
        </mxCell>
        <mxCell id="gqm8zF_rN9MROJ56jwGY-68" value="" style="endArrow=none;html=1;rounded=0;strokeWidth=2;dashed=1;strokeColor=#D8E8F5;dashPattern=1 1;" parent="1" edge="1">
          <mxGeometry width="50" height="50" relative="1" as="geometry">
            <mxPoint x="-359.25" y="390" as="sourcePoint" />
            <mxPoint x="-159.25" y="390" as="targetPoint" />
          </mxGeometry>
        </mxCell>
        <mxCell id="gqm8zF_rN9MROJ56jwGY-69" value="" style="endArrow=none;html=1;rounded=0;strokeWidth=2;endFill=0;" parent="1" edge="1">
          <mxGeometry width="50" height="50" relative="1" as="geometry">
            <mxPoint x="-160" y="171.67000000000002" as="sourcePoint" />
            <mxPoint x="-80" y="171.67000000000002" as="targetPoint" />
          </mxGeometry>
        </mxCell>
        <mxCell id="gqm8zF_rN9MROJ56jwGY-76" value="Databricks VS Code Extension enables syncing dev code base to databricks workspace user&#39;s repo.&lt;br style=&quot;font-size: 15px;&quot;&gt;&lt;br style=&quot;font-size: 15px;&quot;&gt;Users can &lt;b style=&quot;font-size: 15px;&quot;&gt;create&lt;/b&gt;/&lt;b style=&quot;font-size: 15px;&quot;&gt;start&lt;/b&gt;/&lt;b style=&quot;font-size: 15px;&quot;&gt;stop&lt;/b&gt; databricks clusters from VS Code.&lt;div style=&quot;font-size: 15px;&quot;&gt;&lt;span style=&quot;background-color: initial; font-size: 15px;&quot;&gt;Notebook/script can be executed on Databricks user&#39;s cluster &lt;/span&gt;&lt;span style=&quot;background-color: initial; font-size: 15px;&quot;&gt;from VS Code.&lt;/span&gt;&lt;/div&gt;&lt;div style=&quot;font-size: 15px;&quot;&gt;&lt;br style=&quot;font-size: 15px;&quot;&gt;&lt;/div&gt;Databricks CLI enables installation of locally build executable onto databricks user&#39;s cluster&lt;br style=&quot;font-size: 15px;&quot;&gt;for testing during development." style="text;html=1;align=left;verticalAlign=middle;resizable=0;points=[];autosize=1;strokeColor=none;fillColor=none;fontSize=15;" parent="1" vertex="1">
          <mxGeometry x="-141" y="337.5" width="690" height="140" as="geometry" />
        </mxCell>
        <mxCell id="gqm8zF_rN9MROJ56jwGY-78" value="&lt;b style=&quot;font-size: 12px;&quot;&gt;Configs&lt;/b&gt;" style="shape=image;html=1;verticalAlign=top;verticalLabelPosition=bottom;labelBackgroundColor=#C4D2DE;imageAspect=0;aspect=fixed;image=https://cdn1.iconfinder.com/data/icons/hawcons/32/698609-icon-96-folders-128.png;fontSize=12;imageBackground=#C4D2DE;" parent="1" vertex="1">
          <mxGeometry x="805" y="211.5" width="29" height="29" as="geometry" />
        </mxCell>
        <mxCell id="gqm8zF_rN9MROJ56jwGY-85" value="" style="shape=image;verticalLabelPosition=bottom;labelBackgroundColor=default;verticalAlign=top;aspect=fixed;imageAspect=0;image=data:image/png,iVBORw0KGgoAAAANSUhEUgAAAXwAAAIYCAYAAABualcbAAAJ32lDQ1BJQ0MgUHJvZmlsZQAASImVlgdUFGkSx7/uyYkwMwwZhjjknJGckwTJojIMOQwwRBEVkcUVWFFEREARdIkKrkqQRUUEMbAIKGDeQRYBZV0MiIrKNXKb7t7dvat+9er3qvurrv7qe6//AJDE2ElJ8bAQAAncVJ6Pky0zMCiYiXsGCIAKBIEe0GJzUpJsvLzcAWK/x7/bu3EArcY7mqu1/v3+fzWh8IgUDgCQPcKR4SmcBIRPIazHSeKlIsxHWCEjNQlhGI0wnYc0iLDYKketscYqh62x9ddnfH3sEPYFAE9ms3lRABBDkTwznROF1CHmIKzDDY/hInwGYcuEhMRwhBcQVgn7y9qov9UJ+6MOmx31B6/1/9XIHmxOWGJiHFPXSP7/3Ib/bQnxab+/Z3W3yRFcJ1skMhCXAh6ADTggDCQiVxxgAl1gBJAWUiMyU1cX2CUmbeXFREWnMm2QCUUwXbgcLQ2mno6eHgCr814r+4bxtTLEuPlnbjcRAAvuyspK9585t48AnJdDvp//Z441CoBAEgDXD3DSeOlrudVxAQwgIueIDsSBDFAAKkATOVNGwBxYAwfgCjyBLwgCm5Heo0EC4IEMkA12gXxQCPaDQ6ACVIMToAGcBmdBB+gGV8A1cAsMgzHwEPDBNHgBFsA7sAxBEA6iQDRIHJKFlCB1SA8ygSwhB8gd8oGCoFAoCuJCaVA2tBsqhEqgCqgGaoR+gC5AV6Ab0Ah0H5qE5qDX0EcYBZNhOiwNK8PasAlsA7vBvvAmOApOhrPgPHgfXA7XwqfgdvgKfAseg/nwC3gRBVAkFAMlh9JEmaDsUJ6oYFQkiofagSpAlaFqUS2oLtQA6g6Kj5pHfUBj0TQ0E62JNkc7o/3QHHQyege6CF2BbkC3o/vQd9CT6AX0FwwFI4VRx5hhXDCBmChMBiYfU4apw7Rh+jFjmGnMOywWy8CysMZYZ2wQNha7DVuEPYptxfZgR7BT2EUcDieOU8dZ4DxxbFwqLh93BHcKdxk3ipvGvceT8LJ4PbwjPhjPxefiy/BN+Ev4UfwMfpkgRFAimBE8CeGErYRiwklCF+E2YZqwTBQmsogWRF9iLHEXsZzYQuwnPiK+IZFI8iRTkjcphpRDKiedIV0nTZI+kKlkNbIdOYScRt5Hrif3kO+T31AoFGWKNSWYkkrZR2mkXKU8obwXoAloCbgIhAvsFKgUaBcYFXgpSBBUErQR3CyYJVgmeE7wtuC8EEFIWchOiC20Q6hS6ILQhNCiME1YV9hTOEG4SLhJ+IbwLBVHVaY6UMOpedQT1KvUKRqKpkCzo3Fou2knaf20aTqWzqK70GPphfTT9CH6gghVxEDEXyRTpFLkogifgWIoM1wY8YxixlnGOOOjqLSojWiE6F7RFtFR0SUxSTFrsQixArFWsTGxj+JMcQfxOPED4h3ijyXQEmoS3hIZEsck+iXmJemS5pIcyQLJs5IPpGApNSkfqW1SJ6QGpRalZaSdpJOkj0hflZ6XYchYy8TKlMpckpmTpclaysbIlspeln3OFGHaMOOZ5cw+5oKclJyzXJpcjdyQ3LI8S95PPle+Vf6xAlHBRCFSoVShV2FBUVbRQzFbsVnxgRJByUQpWumw0oDSkjJLOUB5j3KH8ixLjOXCymI1sx6pUFSsVJJValXuqmJVTVTjVI+qDqvBaoZq0WqVarfVYXUj9Rj1o+ojGhgNUw2uRq3GhCZZ00YzXbNZc1KLoeWulavVofVSW1E7WPuA9oD2Fx1DnXidkzoPdam6rrq5ul26r/XU9Dh6lXp39Sn6jvo79Tv1XxmoG0QYHDO4Z0gz9DDcY9hr+NnI2Ihn1GI0Z6xoHGpcZTxhQjfxMikyuW6KMbU13WnabfrBzMgs1eys2W/mmuZx5k3ms+tY6yLWnVw3ZSFvwbaoseBbMi1DLY9b8q3krNhWtVZPrRWsw63rrGdsVG1ibU7ZvLTVseXZttku2ZnZbbfrsUfZO9kX2A85UB38HCocnjjKO0Y5NjsuOBk6bXPqccY4uzkfcJ5wkXbhuDS6LLgau2537XMju21wq3B76q7mznPv8oA9XD0Oejxar7Seu77DE3i6eB70fOzF8kr2+tEb6+3lXen9zEfXJ9tnYANtw5YNTRve+dr6Fvs+9FPxS/Pr9Rf0D/Fv9F8KsA8oCeAHagduD7wVJBEUE9QZjAv2D64LXtzosPHQxukQw5D8kPFNrE2Zm25sltgcv/niFsEt7C3nQjGhAaFNoZ/Ynuxa9mKYS1hV2ALHjnOY8yLcOrw0fC7CIqIkYibSIrIkcjbKIupg1Fy0VXRZ9HyMXUxFzKtY59jq2KU4z7j6uJX4gPjWBHxCaMIFLpUbx+1LlEnMTBxJUk/KT+InmyUfSl7gufHqUqCUTSmdqXTkxzqYppL2TdpkumV6Zfr7DP+Mc5nCmdzMwa1qW/dunclyzPp+G3obZ1tvtlz2ruzJ7Tbba3ZAO8J29O5U2Jm3czrHKadhF3FX3K6fcnVyS3Lf7g7Y3ZUnnZeTN/WN0zfN+QL5vPyJPeZ7qr9Ffxvz7dBe/b1H9n4pCC+4WahTWFb4qYhTdPM73e/Kv1vZF7lvqNio+Nh+7H7u/vEDVgcaSoRLskqmDnocbC9llhaUvj205dCNMoOy6sPEw2mH+eXu5Z1HFI/sP/KpIrpirNK2srVKqmpv1dLR8KOjx6yPtVRLVxdWfzwec/xejVNNe61ybdkJ7In0E89O+p8c+N7k+8Y6ibrCus/13Hp+g09DX6NxY2OTVFNxM9yc1jx3KuTU8Gn7050tmi01rYzWwjPgTNqZ5z+E/jB+1u1s7zmTcy3nlc5XtdHaCtqh9q3tCx3RHfzOoM6RC64XervMu9p+1Pqxvluuu/KiyMXiS8RLeZdWLmddXuxJ6pm/EnVlqndL78OrgVfv9nn3DfW79V+/5njt6oDNwOXrFte7b5jduHDT5GbHLaNb7YOGg20/Gf7UNmQ01H7b+HbnsOlw18i6kUujVqNX7tjfuXbX5e6tsfVjI+N+4/cmQib498Lvzd6Pv//qQfqD5Yc5jzCPCh4LPS57IvWk9mfVn1v5RvyLk/aTg083PH04xZl68UvKL5+m855RnpXNyM40zurNds85zg0/3/h8+kXSi+X5/F+Ff616qfLy/G/Wvw0uBC5Mv+K9Wnld9Eb8Tf1bg7e9i16LT94lvFteKngv/r7hg8mHgY8BH2eWMz7hPpV/Vv3c9cXty6OVhJWVJDaP/VUKoBCHIyMBeF0PACUIANowoh82rumxf2oa6C/q5j/wmmb7akYAtCDBZ1Xd9ABwBnHlHKQ24l5IztcawPr6f/jvGuqrzls1LKJ4j69qTnD/YGD/v2qtfwCPQqjCvZm7ZwAAAIplWElmTU0AKgAAAAgABAEaAAUAAAABAAAAPgEbAAUAAAABAAAARgEoAAMAAAABAAIAAIdpAAQAAAABAAAATgAAAAAAAACQAAAAAQAAAJAAAAABAAOShgAHAAAAEgAAAHigAgAEAAAAAQAAAXygAwAEAAAAAQAAAhgAAAAAQVNDSUkAAABTY3JlZW5zaG905qcsVQAAAAlwSFlzAAAWJQAAFiUBSVIk8AAAAdZpVFh0WE1MOmNvbS5hZG9iZS54bXAAAAAAADx4OnhtcG1ldGEgeG1sbnM6eD0iYWRvYmU6bnM6bWV0YS8iIHg6eG1wdGs9IlhNUCBDb3JlIDYuMC4wIj4KICAgPHJkZjpSREYgeG1sbnM6cmRmPSJodHRwOi8vd3d3LnczLm9yZy8xOTk5LzAyLzIyLXJkZi1zeW50YXgtbnMjIj4KICAgICAgPHJkZjpEZXNjcmlwdGlvbiByZGY6YWJvdXQ9IiIKICAgICAgICAgICAgeG1sbnM6ZXhpZj0iaHR0cDovL25zLmFkb2JlLmNvbS9leGlmLzEuMC8iPgogICAgICAgICA8ZXhpZjpQaXhlbFlEaW1lbnNpb24+NTM2PC9leGlmOlBpeGVsWURpbWVuc2lvbj4KICAgICAgICAgPGV4aWY6UGl4ZWxYRGltZW5zaW9uPjM4MDwvZXhpZjpQaXhlbFhEaW1lbnNpb24+CiAgICAgICAgIDxleGlmOlVzZXJDb21tZW50PlNjcmVlbnNob3Q8L2V4aWY6VXNlckNvbW1lbnQ+CiAgICAgIDwvcmRmOkRlc2NyaXB0aW9uPgogICA8L3JkZjpSREY+CjwveDp4bXBtZXRhPgpRw7mRAAAAHGlET1QAAAACAAAAAAAAAQwAAAAoAAABDAAAAQwAAFYXKS+wPgAAQABJREFUeAHsXQdcVUfWP1RBRUAUsIAgClbsDbuxa6zppmo2ba3rbnb3y7asscSNazfZ7KaYxKiJGiVobLHXWFCMBRSs2JEiXYRvzjzmMu9y3+M9eA8e752Tn9y50+7Mf17+M/fMmXOdAKCI/SMhBAgBQoAQsHMEnFj/iPDtfJCpe4QAIUAIIAJE+PQ7IAQIAULAQRAgwneQgaZuEgKEACFAhE+/AUKAECAEHAQBInwHGWjqJiFACBACRPj0GyAECAFCwEEQIMJ3kIGmbhIChAAhQIRPvwFCgBAgBBwEASJ8Bxlo6iYhQAgQAkT49BsgBAgBQsBBECDCd5CBpm4SAoQAIUCET7+Bao2As4szBIf6Q5NmAeDi4gKFhYWwd9tpKCrUeQwJaOgLPQe2hcyMHNi/Iw5ysvKqdX+p8YRARRAgwq8IemWU7TzmlTJyaCcf37hSO4Fi9RCIaBMEw8d31zkIkVKWz90I+XmPwMnJCaa8Nw5cXJ156p2bqfDtpzulnBQkBBwLAZsg/C5dukBSUhKkpKTYDfoNW7SHkX/6d7n68+mrA8pVzpEKNWkWCOMm9C5F9oiBIPy69bzglclDFVgKCh7D0g82KPcUIAQcDYEqJ/yoqCiYM2cOJCcnw+TJkyE1NdUuxgDJHkm/PEKEXzZqoyf0gqbNG+gyMu3Njav34PSxS5CVmQs3r6VAUZFOpfPmH0ZBzVo1eL7EhJsQ/e3BsiunHISAnSJQ5YQfEREBixcvBi8vL7h8+TIn/bS0tGoNt3p1f/PCKYiZ9zujfUL1T8diFRARvlGoeOLrM0aAl3dNHk6+dh+++3y3ZiFU50R2DoNspruPP3NNMw9FEgKOgkCVEz4CHR4eDosWLQJvb29ITEyEKVOmQHp6erUdA/XqHskeSd+YEOEbQ6d02tS/jmebtDrd/I7o4/DryculM1EMIUAI6CFgE4SPLWrWrBksWbKEk/6lS5dg6tSpVUr65d1wxb6IlTqGUU6asAkb2KKdogKy9grfydkJPDzdK2yxUrO2B+Tl5sPjgkJdRyvw172GGxQ+LgTUs5siMuHj6h5X+ZYSN3dXcGYY5eU+qnCViFE2UzOREAK2gIDNED6CERYWxknfx8cHEhISYNq0aZCRkVElOKlX6aY2oo67EwTVcoY67s5wPesx3MjUJ8PGtZ1ZugtPwzrV6RhnDcJvGFwP+gyKBH9mpihWxoXMdDHrYQ7cu5MGB3acgZR7xrH29q0FvQdHQkhYILi5uSobplhPemomHN13Hs6fvopd0JS3/ziaE2kBmyA+W7gZGgT5Qfe+rcC/gQ8g4aPg5JGelgkxaw+Xas/IZ3tAk6YBPJ/IjzcFjx5zc0wMP2T9+WrZNgxyGfdyH2jQqC4P7/zxBMT/er04Rf8SwjaB+w5tBz51vXgbMfUxm4DSUh7C5u+P8La8/M5grkbC7YF1K/fA3VulVY+163jC4DFdoJ6/N987QEsh/KZcTk4ePLj3EH7acBQepmfrP5zuCIFKQsCmCB/7HBoaCkuXLgVfX1+Ij4/nK/3MzMxKgqPkMeUhfEHmJbWAHulrpWfkF8LZVP1VraUJf+CTnaBtp6Zys0qFcZPzpw2/GNRzt+4YCoNYPZzASpUuiUDTx7Wf79Jc9c/4x9NKxg3f7IexbOPVYH2MJPdsOwWxRy4qZSa8NQj8A32Ue60AviUsnrVeSXptyjDw8avN708ciod92+OUNBFo360Z9B/WQdyWvha3Jap/GzYxsYmOCRL3hTj9PYGwFg1h5NM9AM8GGBKcHHdtOQlnjicZykLxhIDVELA5wseehoSE8JW+n58fXLhwga/0K5v0LUX42B9c6Xu7OfFVP97LYm3Cx9Vm6/Yh8iP5ijM7KxdQdYH/ZNmzVZ9kMY3buz/F7N1VgioPof6Qkx7cz4CV0ipbpMmEj8SHahMUXNXnMbt5VDOJOIxH8v7kX9GKamXEMyUr/BoeujcCUV6ogrBNny3ajNFcyiL8YPbGMP6lPsrbiiiXm5MP+AxlQmKkz0XX5FKEXy/AG156e7AozjHOZG8bOdl57K2hdimcv1jyE6Q9qPyFTEkDKeSICNgk4eNABAcHw7JlywBJ/9y5czB9+nTIysqqtDGyJOEba7Q1CR9VJs9NGqA8Hgn0580n4XzcVWUF3jSCrUoZkQo1Dx5YQjt2IUjob707ClxdXUQUHN5zFk79cglys/N5HNrED2UTC+qrheCp1uMH48Utv8qEjxFYfs1nuyCVqU1QcG9hxNPdoXnLxvwe/5w9dQW2bzym3IuAqTp8Y4SPVj4Tpw4rWZEzUt+34zTEsdX3o/wC3p4whs+QMV2Vlb14vnqFP3RcV2gZ2YQn4wT2PVP53Lpecq4E1VYvvDFQmUCSmInoJjIRFXDStZIQsFnCx/4HBQVx9U79+vXh7NmznPSzsytH/2kPhP/c6wOgQWM/5acUveYgJF64qdyLQOsOITB4dBdxC9FrDrF8yfy+e79W0KNfayXNkFoEddcTpw1XJg5cIX/84SalHAZkwkdC/WzxFs2N4zd+/yTUKp487t1Og28+2aFXD95YgvBlksY69zIV0snDJSokjEPxq18HXmSrd/ntQ034b787GjxquvP8hiapdl3CoEuvFjzP9St3YdsPpScynkh/CAErIWDThI99bty4MSd9f39/OHPmDMyYMYNtgOVYCY6Sak0hfNyglaW1r756RE4zFj6bWqAkZ+QXWWTTFlURSIqCpHCzcsu6I8pz1AFU/Qj9+Dm28XrycALP8hpbAaNKAiU9NQs+ZyRtSFq2awJDx3ZVklcu2woP7utW7xgpE/6501cMEl6/Ye2hQ7fmvB58C/h4vv7EgQmWIHyZpO+yiWWVxsTCG8H+dOzRHPoOaS9uS6l05ANed5IfwLf//VnJSwFCwFYQsHnCR6AaNmzI1TsBAQEQGxvLD2dZG8CyCF9rA9ZSbboQFwsf/nFqharzY1YiaFUiZNPqg5AUX3p1L9INXWViNUbSWB7VPlP+Mk6pat/203DikG7iwEiZ8HHyMWQx07ZzUxg4shOvBy1wls4u7Q5Bbpcxs0xjKp3pf39KUbGcPJIAe7eeVtquDniy07pvsVO7QtQr/LEv9ebWSyI9Iy0bsE7cnBX7CyKNroRAVSFQLQgfwZk4cSJMmjQJ8vPzoX///lbHqyzC7xFQsmlojca8Noz5iamANG/VmOvmRRVImkie5sqMvzPLmuIXmZ0xJ8q0LkFnZa5uOn0/6vl3b4lVHikT/n8++tGgfTpau4x6ricvZy3CR0uaaewNSMgPzGroyqXb4lbzOvUv7LBXsSM2NeHjBDvhzYGKSkuuAE/53kpOgV/2nofbbPVPQghUFQLVgvDHjh0LM2fO5KuxVatWwYoVK6yOlzHCN3V1jxuy17N0dvioqkEVkM5Ov2QD1FBHcIWPK/3ySofuzaHfUJ0KQm2qaGqdSNxI4EJQl446dWMiuzxIOHcDNn93WMkuE/4n86O5BYuSKAUqg/CRuJHAhaxbuReuX74rbjWv8mSmJnwsgKSPFj+1vEo2r9UVoYpqx4/H4dJ53R6JOp3uCQFrImDzhC+T/erVq7lqx5qAiLqNET6Sdln6ei3rG1G3KRPGplVfwMZvPhdFzL6qTSmXfLBescwxpzKZpLesP2rQTl/U+ds/j1UsWs6cSAI87CRErquqCR/bJKt0jh24AAd2nhFNLXVFE813/jRGidcifJGIm7zd+7eGxuywW81ajPyL35BEOh7E2rrxF6OH1JS8FCAELIiATRO+TPZr167ltvkW7LvRqowRPhYsi/QP33lktP7Wvi6advlYqKJkj3WgGeCENwdhkMuGr/fB1cQ74tbkK6o9xEGi08cTYVfMSYNlcaMYSVTIwV2/wi/s9K0QWyP83/55jHLC9yYzoVzLTEQNCR48Gzyqs5JsjPCVTCyAbxLhrYPYpm+4simO6VpWTHI5ChMC1kDAZglfJvt169bBwoULrdF/g3WWRfhY0BDpG1vdiwcaWuXjIa2/PdVPZCv3leuoUWVRvLpU69PVFYeGN+CTBJJ2/Jnrim38GzOZiWSxiuLu7VRmyWL4AyKNQ+rD06+WtF29mWprhD/q+SgIi2ikQGGIxLnJ6VRmclqsv8cChvIqlWkE1Gagwm+/RlaKIgSsgoBNEr5M9hs2bIAFCxZYpfPGKjWF8LG81uZtRQgf3wws5VoBT37iCVAUdJ2w6j87NXXw+BnAF34zUJkcULWBKg6UASM6AtqPCzFEdEiGb/zuScUWXWuz1dYIH3XuL709SLHUQYzQeujiuWTFnz5iM/bF3uBZU+dTXwsH/NDKQLb6x/+ZCh4/hujVh/jBLZFXXAMb14XnX39C3HITVzR1JSEEKgsBmyN8mew3btwIH330kfI/X2WBgs8xhfANrdIrQviWWuFjH9SWOniKduXybfz7rpiOgu4M0NYeryh4ShQtesQHRHB1ixuxwsUAukRY87+fAX3mCEGyx5W9fMjrbOxl2L7puMjCr7ZG+NioVsztxBB2BkEW7Dt+Axf17/KqHuMFDvLEhyeM32RvQuJt6v6ddPj64+1ylVwt9uzE/hBY7MgN61r0/jq9PHRDCFgbAZsifJnso6OjYf78+QrxWBsIdf1lEb4hshf14GEqtMwxJFpvBiKvJXT4oq5nXusPjZrUE7f8ipYi6OeltpensiIXGbT09FED2kC3Pi1FFn7Fk7KpzBeMJ5sovOqwD5HgL6lYUD+NPnDEh8RFvC0SPrYNPYB2jooQzdS84gnj1h1ClYlRJnwsMOGtgUxH76uURXyQ+NPTssCdbfg2Dq6vbGZjpsT4ZP4moBSgACFQCQjYDOHLZB8TEwPz5s2rMrJH3I0Rfllkj+VxlY8mmVqkb0p5S5E+rlCfY2oEcYoW22ZI0MfOVuYxU0uGjO0CrdqFaCXpxSHZ44fCtVQVtkr42IF2XZvxSU24dOCdYvM1Toz4gRW00Uf3zuJNSE34vn5e8Mxr/fT8CekBI90g2f+45nCV/r6l5lDQgRCwCcKXyX7Lli0wd+5cxb95VY2FMcI3tFmr1VZU0aAI4he+8rXyynGWInxRJ/rEQXcFgrBEPJoIZjOPjoeYRQ2aURqTiLbB0OuJNlDHp1apbOg7/iKzu0dyNHTASz7EZcwsMyjUH556pS9/Rn5eAXPm9kOp58mHoIydD3hlylCoy8gYxZAfILlyVNmgTh5F/X2Ayf83VvF6qWWiimUHje7MvYvKzuZ4ZcU44+ljY98M4HnpDyFgJQSqnPCHDRsG7733HteNbt26FWbPnl3lZI9YGyN8TDdmVonpFZWKnrQ19Hz0EOnfwJcRvxvfwNX6iIehsiIenYSh+sLL25OTO6ou0GeO0PuLfLZ+xYNlYgLEvQljX6ZSH0JbzXzlGDs1i4TfiFkt4RvD3VupXL1j63hQ++wfgSon/MDAQFi+fDnExcXBrFmzbILscdjLInxc5eNqXRb8ypUlxNKre0u0yR7rUHsJRVWUvBkt91lvL4St1pfMLt9BNrlOChMClY1AlRM+dhh93qemptoM2WObGrZoz/61w6DJMubJEdCoYQOT84uMG3/cDMk3b4lbOG7CN3CVzBSoEAKymgZX+fG/XoPLF29zR3P4jYDgpv7Qa2Ak4Ocdhdy4cg++/3KPuKUrIVBtELAJwq82aJXR0DEvToTRE14rI5d+siU8Y+rXSHfmINC5ZwT0Zt/6NVXwK1WozsHNaRJCoLohQIRvwREjwrcgmJVYFX71a/j4bsqGrKFHJzL30tHMzTQJIVBdESDCt+DIGSJ89HzZIrKD5uqfVvgWHIAKVIWbrO3Yx8zxYJQfs9LxZIeu0Nro/t00SL56Hy4n3CpltVOBx1FRQqBKECDCtyDsSOp//HCJXo2ym2OtdNqg1YOLbggBQsCKCBDhWwFcXOmj4Opdy6d9WelWaBJVSQgQAoQAPxDPjMxICAFCgBAgBOwdAVrh2/sIU/8IAUKAEChGgAiffgqEACFACDgIAkT4DjLQ1E1CgBAgBIjw6TdACBAChICDIECE7yADTd0kBAgBQoAIn34DhAAhQAg4CAJE+A4y0NRNQoAQIASI8Ok3QAgQAoSAgyBAhO8gA03dJAQIAUKACJ9+A4QAIUAIOAgCRPgOMtDUTUKAECAEiPDpN0AIEAKEgIMgQITvIANN3SQECAFCgAiffgOEACFACDgIAkT4DjLQ1E1CgBAgBIjw6TdACBAChICDIECE7yADTd0kBAgBQoAIn34DhAAhQAg4CAJE+A4y0NRNQoAQIASI8Ok3QAgQAoSAgyBAhG+lgY5sEQj4z1z5ZuMpc4tYLL93XT9wcXUDKCqCB/fu6NXr4uIKAY2DwMnZGe7fugl5uTl66XRDCBACto+ATRB+ly5dICkpCVJSUmwfMRNb+OEfh5aL8P/44VaIu3DbxKdYLpuziwt06z9EqfDwzi1KGAPN27SHeoENeVx+Xh6c2P+zXjrdEAKEgO0jUOWEHxUVBXPmzIHk5GSYPHkypKam2j5qZbQQV/ZI+OURWyX8zn0Ggpu7u9Kl4/t2wqP8fOXeEgFn9vYgpLCwUATpSggQAhZCoMoJPyIiAhYvXgxeXl5w+fJlTvppaWkW6l7VVKNe3Q977UujDZEnCFsl/OCwCGgUGsb7kZWRDnG/HDTap/Ikdn9iGDg54U8SIPbgHsjNyS5PNVSGECAEDCBQ5YSP7QoPD4dFixaBt7c3JCYmwpQpUyA9Pd1Ak207WiZvbOmqTaegLL28XMZWCR/74uXjC66urpCWcp+p+YswyqIiE37c0QOQ9TDDovVTZYSAoyNgE4SPg9CsWTNYsmQJJ/1Lly7B1KlTq5T0XxzTvly/jbYR+pu1SPhlibu7B7z2wlDITL0Ctkz4ZfWjoulE+BVFkMoTAsYRsBnCx2aGhYVx0vfx8YGEhASYNm0aZGRUzSpPrZYxDmNJqotrDfCr6wmubp7ggv/cPaFOnSJwdvVgFjA1oJZnDji5uLF7N3BzS2VhF2CmL5Cb6wm56Xnw4eKd8OGSmJIKrRByYc9EHbm8Si9r07Y8zUCdPL4HFJmojyfCLw/KVIYQMB0BmyJ8bHZoaCgsXboUfH19IT4+nq/0MzMzTe+RhXKaS/j9O7FNRkZwTsx8EZxdGIczIpevxfFKHCd6lq84Pje3Jjhl3eImkQdPu8DAMf+wUE901fj41Yegps2hVh1vRU+OppX3byXDjSuJPJMxKx2/gAYQHBbO892+cQ1uXbus2b669QOgXoNG4OXtA+41PHgetOrJzsyAO8nX4cFdfQukwKAQaBDUhOfzqFlLqfNxQQHbFM7j96jaSTgTq6RRgBAgBMqHgM0RPnYjJCSEr/T9/PzgwoULfKVf2aRvLuH3a88sVpDgkchlonfWTQDA4sUkoMuH8WyCKE7PY4Rf9DCZET7AI+dG4NNsSvlGVF2KbYI2b91OMalUJ+M9kuuZY4egfY8+SrLaLBOJOTSiFU9PuXOrFAHjZmsISw9srCNvpSJV4P6dm5B07gw8fvyYp4SEt4QGwaGqXPq3OVmZcOrwPv1IuiMECAGzEbBJwsdeBAcHw7JlywBJ/9y5czB9+nTIysoyu4PlLWA24bdjB5GcZMIvXumrJgCm12Ekz8wPi4leTAJ5ubWgMP06a24RpOb4QlDHv5S36XrlmrZoww5MBevFoSonNzsLPGvVVuJxFe5eo4Zyby7hh7WKBP+GjZXy+Xm58DAtlam23KGOb13lrQIz4Eo/6fwZnhcnksDi9sntwbePwuJJIf3Bfbgcf06pmwKEACFQPgRslvCxO0FBQVy9U79+fTh79iwn/ezsyjHVM5fw+7bOZHwvEbmK6LnqRpoQlLeAYpUOEv7j1KtcpZOWVxeCu/yjfCMqlarlVQciu/VSYtBuPuHMSU7ESPqot/et5w/hbTsoeUTAHMLH1X1XdmhL2NHfuHwJricmiKr4Fd8OkNxR8NnH9mxXVvk8kv0hHb5Agq6EgHUQsGnCxy43btyYk76/vz+cOXMGZsyYATk51j/Wby7h92vFzEgZoYOrUN3oq2xKqXoknT6SPxJ+QQrqxYsgLc8PmnT/oMIjjkSOunchp4/sZ7r0h+JWudZnOvdmTO0jizmEjy4ZWnXsxovjZvDRXVvlqngYJwV8Bur1i9h/F8+cUnT0IjMRvkCCroSAdRCwecLHbjds2JCrdwICAiA2NpYfzrIOHCW1mkv4fSOYWwhG3Hzlzlf32iodobMXE4Aog4Sff59tnjIdfkZ+PQjpNa+kMeUJMYLFTVix6r568QLcvJpksKaIyI5Q17/E9485hI8qm9aduit1nzywu1y+dojwFQgpQAhYBYFqQfjY84kTJ8KkSZMgn6kl+vfvbxUw5ErNJfze7eqCc95Frpt3Kl7pm6TTxw1eNkHk5tSG/LusPGP89Ef+ENrnX3JzzA7X8PCEjr1KcCrrIFNAo2Bo2rKN8hxzCB8nlW4DhiplcZWfzNQ695gFkDlO1ojwFQgpQAhYBYFqQfhjx46FmTNn8o2/VatWwYoVK6wChlypuYTfrf/LUOPGRzpLHFzhO7HNWTN0+jk5teDRHab3ZvrtjAJG+AMWyc0xO1y7jg+07RqllDvC1CzG7OHV+c0hfHxIY2byiWafail4lA/pD1IALXvQA6ds+6/OS4SvRoTuCQHLImDzhC+T/erVq7lqx7IQaNdmLuF3HTkXPM6/qjOzZITPrW/0dPrF6h5hncPVPuwAlHszeOTZHzJSbzA7/JvgnroN0gsCIWzQUu2GmRjrW68+tGjfhedGs8tf2CapMUH3x137D1aymEv4WBDNK4OYrT4e7NISXPnfuXEVrjD1Ek5saiHCVyNC94SAZRGwacKXyX7t2rXcNt+y3Tdcm7mE32XEHHB/EAMud9eX6PKLdfo6G/zSOv1HtYfAY69BrBFF7ABUPDh7BECtBHa6uLABNBv6seHGmZCCfm/adO6h5Dz880+aJCsy1KztBe269xa3UB7C54XZ3oEvO+SFG8F1fP30PGyKytNS7sGFU8dLrfaJ8AVCdCUErIOAzRK+TPbr1q2DhQsXWgcBA7WaS/i4wnd1rwWuseMZ4eOBKrbK5at4ptrBlX7xil5s1j7ynwqFNZopT9cRvj/UPPcOZBQ1hOYj/quklSfg4VkTOvTspxQ9dWgv5DDbe0OittQpN+GrHuDmzlxNBARCo5Bmenb+52N/4U7Y5OxE+DIaFCYELI+ATRK+TPYbNmyABQsWWL7nZdRoLuF3GTmHrWZrg9OtteB8e62O8HFDVqzyMVw8ATyu+yQUuuhOpBZ56TZKM678BI+8uoHr3R8h7+5JaD7qizJaaDwZD3ehlY5wN3zp7Gm+iWqoVGiL1nqnZC1F+OJ5uLHbpd9gxWoILYbQckgWInwZDQoTApZHwOYIXyb7jRs3wkcffVTq1d/yMJSu0VzCFyt8rMnl0t/A6eFZvZU+N8dkK/3H9cfA47qjWPqvIMgey9y/xcjP3R/cbm+E3DsnIXzsVxhdIWnVsSt4163H60A9fuyhPZofLVFv2GIBcwgfzTl9/HTPeXD3Dlu53+PPVP9p0b4zP+iF8WjBg5OQLDLhn489ZrAeuQyFCQFCwHQEbIrwZbKPjo6G+fPnVwnZI3zmEn7nEbP5Ch/LMjU2uFz8O0Dmr3or/EL/8VBYf5xE9rhxqRuCezd1hI/lC0//DcLHfY3BColvfX9o0a6zUkcm+3DJuRNH9E64unt4QPvufZjHB7bHIIk5hN+keUto2CSUl0YrnDg84MX838iCewR46le8cVxJOF/KAVun3gP4wSwsl8KcrF1kDtOMWfXI9VOYECAEykbAZghfJvuYmBiYN29elf7PbjbhD5/NdfiC0BB6VO04ZzEfMMz9cWHAM1BUW+d8TGtYdISPq2QniGcO40aMGKaVzew4PBCFB6NkQeJHXzq4sveoWZMnoQWNOKSFEeYQPp6eRbIWgiSdkfoAMjPS+BtFbeahU3wPF/Pgs/ATifjWIUvLDl3Ym0J9JQrrwbcFPB187VK8Ek8BQoAQKB8CNkH4Mtlv2bIF5s6dy0mhfF2yTClzCb/jsFmM8JkOv/jxCvGzCCclloVx+a8h926ehyI3HeEnMLfQliJ8Vzc3aM2sdWpKjtI0Hs9W/kehVSedewRMN4fwMb9/oyBAR22G+od5UPAgFqpr0AOmWtS+f0Q6ecsUSNCVEKgYAlVO+MOGDYP33nuPE8XWrVth9uzZVU72CKm5hN9h6Cym0mH+3IsJHYF1ymR6fLYpi1fU18tUryZGHeHrVrcJCYzwh1tmhY99QSdpjZmVTAOmdpFX8ZiWkfaAuyvOY94tjfnDR4+bSOgoWu6RMR4tg9BrZm3mC1/9HPTG+eDebbjKVDm4wjck6Ecf7flxX0BghOqh0+Qe2RBkFE8ImIxAlRN+YGAgLF++HOLi4mDWrFlGycDkXlkgo7mE337w+1yloxC+RPzYHEFeOtYvWfOL+Hts07bIFVf4ABcvJliU8Hml7A8+q4anJ9eTFz4uZHr2h4oLYpHHUlc0x8QJANUy+PETYySv9Uy0MnJjrpWxPJ7WxSsJIUAIVAyBKid8bD76vE9NTTWbFCrWdeOl8cPi+M9UmbVwPdSqzb4mJQoIwucRJQSPE4IuSpdT5D//60mm527C0y5evAjDh5f4phFV0pUQIAQIgYoggHxDS6eKIFhc9vyFeKhbl33oQ9TFCV9nhcPjxASA6SxCmQKKJ4B9+/dBq5atcRnOMhRBePOSQ1miSroSAoQAIVARBHTsUpEaqCxHwBjhYwZO+jygCxXzv0L8+/fvh1atdTry48eOwQsvPMfrpT+EACFACFgKASJ8CyHZmpF1eHhzaB4ezlbn4cXX5nzDVH5EKeLHRBZ5YP8BTvinTsXCb16fBBkZGXIxChMChAAhUGEEiPArDKHhCnCTtDkjf3kiCGcTAk4KHuzAkywHDhzgyrXXX58IDx48kJMoTAgQAoSARRAgwrcIjOZXEhoayiYC8SYQzj7lGARvvfUG3L171/zKqAQhQAgQAiYgQIRvAkiUhRAgBAgBe0CACN8eRpH6QAgQAoSACQgQ4ZsAEmUhBAgBQsAeECDCt4dRpD4QAoQAIWACAkT4JoBEWQgBQoAQsAcEiPDtYRSpD4QAIUAImIAAEb4JIFEWQoAQIATsAQEifHsYReoDIUAIEAImIECEbwJIlIUQIAQIAXtAgAjfHkaR+kAIEAKEgAkIEOGbABJlIQQIAULAHhAgwreHUaQ+EAKEACFgAgJE+CaARFkIAUKAELAHBIjw7WEUqQ+EACFACJiAABG+CSBRFkKAECAE7AEBInx7GEXqAyFACBACJiBAhG8CSJSFECAECAF7QIAI3x5GkfpACBAChIAJCBDhmwASZSEECAFCwB4QIMK3h1GkPhAChAAhYAICRPgmgERZCAFCgBCwBwSI8O1hFKkPhAAhQAiYgAARvgkglSdLZGgARIb6m130m11nzC5jqEDtOp7QMrIJABvljNQsiP/1ul7WgIa+0HNgW8jMyIH9O+IgJytPLz2ySxjU8HCDwseFcOJQgl6avd2UhYW99Zf645gI2AThd+nSBZKSkiAlJcVuRmH+awMZ4QeY3Z93v9gJcZfvmF1Oq0DXPi2h54A2PAlJ/b//jlGyOTk5wZT3xoGLqzOPu3MzFb79dKeSXsvLA96Y+aTuvghg4fvfK2n2FigLC3vrL/XHcRGocsKPioqCOXPmQHJyMkyePBlSU1Or/Wgg0SPhl0cqi/Dr1vOCVyYPVZpYUPAYln6wQbl3JMIvCwsFFAoQAtUcgSon/IiICFi8eDF4eXnB5cuXOemnpaVVa1jVq/uhf1tltD/yBFFZhI8NevMPo6BmrRq8bYkJNyH624NKOx2J8MvCQgGFAoRANUegygkf8QsPD4dFixaBt7c3JCYmwpQpUyA9Pb1aQiuTN3bgmz1xUJZeXi5TmYSP6pzIzmGQzXT38Weu6eHtaIRvDAs9YOiGEKjGCNgE4SN+zZo1gyVLlnDSv3TpEkydOrVKSf/FAW3LNayRTXCztkR3j4RvirzYL5Jnq0zCN9YuRyN8Y1hQGiFgLwjYDOEjoGFhYZz0fXx8ICEhAaZNmwYZGRlVgrVaLVNZjaguhO/q6gKu7i6Qm51fIWhwwxQnF3zLQGsgY+Lh6Q6PHhXA4wLj+YzVgWmubi7gXsMNsjNzy8pqNB3bXrN2DVZPHhQVsZ3tcoizizNri2uFcSzHo6mIAyJgU4SP+IeGhsLSpUvB19cX4uPj+Uo/MzOz0ofGEQh/3Mt9oEGjuhzbnT+e0DPb1Frh16ztAcOf6gYNGvsBEj4KEh1aAB3c9SucP32Vx6n/BDcNgCef7cGjU+5mwJrPdkG/Ye2haXhDqONTE5A4ceL4eP4mvaL4jCFju0DDoHp8rwHJESU/rwDSUzPhPFNDnTgYr1dG3PQZ0g7adgzlt2dOXoZf9p2HwWO68LaLfYsribfhh6/38zzGsBB14hVNXfsP7wAhzQIVDDAeN72vX74Lu7fEsrZlYZRBacLKRvVvDT51awNOYig42eGkd+PqPdi28ViZk5/ByimBEDCCgM0RPrY1JCSEr/T9/PzgwoULfKVf2aTvCIT/2pRh4ONXm/88ThyKh33bS9RPasJf//U+GPdSb07Ohn5PV5PuwIav9pVKjmgTxCaK7jz+UX4BJ+rITk318uXmMML/sITwQ5s3gBFPdwc3d1e9fOqbi+dvQMzaw+poGMkmmOYtG/P4m9fuswnDQ+mryHyVEf6GYsI3hoXIj/0YNr6bUQxwAtz6wy9wIU5/T0TU0WtQW+jSs4W41bwiFhsY3mgqS0IIWBIBmyR87GBwcDAsW7YMkPTPnTsH06dPh6ws4ysnSwJjKuGn+jQH37SLpR6N8R5Fl8AzvfSrfmqQM/he11ZLVKZKxxjJ6RE+691jtgJ1KV5hY2eRlDw82OoUf0GSaBGwTPhSVl2QwfO4sJDX9+lHP/I4VLe886fR+sTK8uXk5LHHOelWxdJztZ4pE776mUjKqIHBFf6mVQd4sjEsMANOQGMm9NKvitWRl/cIarD2qnFYzya+a2wClKUHW9V379tKiSosLIKMtCwoZP338a0N4g0GM+DEuGzOD0peChAClkDAZgkfOxcUFMTVO/Xr14ezZ89y0s/OzrZEv8usw1TC39l3CfimXoKm137idaZ6N4NU7+Y83KBwOb8i6XtkFEFuHR1LPQh2hoZfN4HcK03BIyQJ3Oo+gEcPdKoVjJt1ah6cS7tQZhvLymDs4BWWNUZyasLH/EiU+7afhjMnLnNCQpVLy/ZNYMDwjuDsXMLAeIBLXp1qET6qPVD9gaRbxIhPlsGjO0PrDqFK1N5tpyH2yEVFT45qlWde6w/evrV4Hi1y1CL8pIu34Mjus3ptEw8xhgUS8dvvjua6dp6fNXfv9lMQdyyJq3KEhU+/oe1FdZCX+whWzNuo3GPg9RkjwMu7Jo/LSMvmB91ysktON3fqGQF9Buk27zETqnbOnbrC89MfQsASCNg04WMHGzduzEnf398fzpw5AzNmzGArvRxL9N1oHeYQvlZFOAkg4ed4lxChnE8QvhwnwrZK+Ls2n4TTxxJFM5Vry3ZNYOjYrsr9NabLXr9yr3KvJvyUu+nw9Sc7ShG9KPDUq335ihfvUU9/cGdpdxOeNWvAW++OEkXg0wU/QtbDkk1YNeGf+uUSn2CUAqqAMcLvFBUOfQa3U0rs2XqKT0BKRHGgS68W0Iu5qhCy+fvDkHD2Br/Ft5bf/nmMSOIqm6uJ+m8AmIgqo0bB9Xi+o/vPw5njSUoZChACFUXA5gkfO9iwYUOu3gkICIDY2Fh+OKuiHS+rPBG+5FqBgZV89T5898Vug7DhpmcTtjmLoj61qyZ8rAfrq6j89s9jlVU3bjqfOVFCjjLho+pk8T/XGX2cMcJ/+Z3B4Ofvzcvfu50G37DJypDIq/jrV+7Cui91Ex++DU35yzil2JG95+Awe9sgIQQqE4FqQfgIyMSJE2HSpEmQn58P/fv3tzpG5hA+ruZ900v0+Ekhw7iaR1bpiAbjih//iRU+qnSEFKT5Av6zxRU+qnKMOVBr17UZU+10EF2B5XM3MmuaR/xeJnxTyFepxEDAiamP0NJm0vQRyr7CLqYeOs1W8UJkwk+9/xC+XLZVJGlejRH+1L+MV3wOnT6eCLtiTmrWgZFjX+zNLXgwnPmQ+S9aUOK/CNVCHjV1VjmYfvN6Chw7cAGS4m/iLQkhYHUEqgXhjx07FmbOnMk38VatWgUrVqywOjDmEH7TKz8xwi8hm6TgYbx9gvDlDVrcsJUJ36vjcaUvqMe3VR0+rmpxdWtI1P5oVv1nB9y9pcsvE76Wvt1QnY1D6kOr9iEQxK5oZYP7BM7OzDQTf7UqMUb4ycxK57vPDb+dYFXGCH/G35/Wf6b+loN+S6S2qfvatnNTGDiyk35+dod7Iw/Tc/h+xlG28kczVxJCwBoI2Dzhy2S/evVqrtqxBhDqOs0hfHVZvLc3Hf7Cf5TtLVMmxug1ByHxgm7lai7h4woeLWJCwgK1oNWM2/1TLJw6WjLpyiv8ihA+HtJCr6LlEbRsWjJrvV7RNuxsAG7uGjM3TUvJBDSDRQseEkLAkgjYNOHLZL927Vpum2/JzhuriwhfX4f/+eItRg8Uqa168HDVLaayQDGX8F+ZMhTq+nmVDA9bUefm5gNatKD1C5pC4kEtrFeItQgf65/xD7bCL5aH6dmQwf4ZEjTRRDJHdQ6qknZEl7zByWVCwxtA56gI8G/gq+xDyOm4D/LNxzsgNeWhHE1hQqBCCNgs4ctkv27dOli4cGGFOmpuYSJ8fcLfGcM2RY1YjKgtdT6ZH80JGnE3h/Dx5OnbfxytDBdufOLBKrT7VwtavaD1C4o1VTrT/jpesZE/uu8cHNpl2c1W1Ou3Y07scB+kFjvNLMTQQTaRTldCwFwEbJLwZbLfsGEDLFiwwNx+VTg/Eb4+4SecuwGbvyt9olUAjS4QWrUL4bfqjVlzCF82gVTrwMWz8Ko2y7TmCv+N3z+pELFseSO3x1Jh2cpHffrYUs+gehwXAZsjfJnsN27cCB999JFy4KYyh4kIX5/wgalVuDkl2wBVi38DH5jwxiBlY/Pu7VRY9clOJZs5hD9gZEe+2sXCxggPffF06KY74IZ5rbnCf+LJTqC4gmA4fL9yD9y4cg8fW0qi2BfGwiIa8vib1+/Dz8UWPfgGJOp4YETVI/dfbd5a6mEUQQiYiYBNEb5M9tHR0TB//vwqIXvEkAhfRfgMk4JHj+GrFdv0dPmou3918jA9PXQMexO4yN4IhJhD+IGN68Lzrz8hisJ2pgM/y5yfydJncCR0YvpvWay5wsfTsa8zE1BhHYSOzr75z07AA2SyqF0nHGUO2w4xp3Io+H3gJ0Z0VLKrfRdhAp4gfvmdIfw7wniPp5Fx74SEELAUAjZD+DLZx8TEwLx586qM7BFcInwV4bOVrSA8XHk/uJcBdevV0bMrR9zu32GnaD/ejkFFzCF8LDSV6cxlvz2o2rl98wG4ubmCX/06mhYu1iR8bFNvNsngJqss6LXzPiN9bKsv22RGN8dCMA29f8oun/HglfAyivlwExpdUCCeOHE2Cq6v56ICnbAZ8kAqnkNXQsAcBGyC8GWy37JlC8ydO5c7lDKnI5bOayrhn4icCqm+zUo9ntvmF24D9JujlrrXCsFjbyi3uVen4b3NHbxiZL97ayz0H1ZysEqr3ejaYOXyrdySRk43l/BbRAZzVw3oNtmQ3GVnArzYihh1+SjWVOmINqDHT+xLWYIT1Mrl25htvb41T3jrxjB0XDe9yUyzLob3vp1xBl0/a5ahSELABASqnPCHDRsG7733Hj9UtXXrVpg9e3aVkz3iZirhY96kJsO4wzQkfnHqtunVnzCJH7ISh63QiRr+Ewex8FRtTlIYz4d/XH1S4e97/wNxl0v7WFEymRGQnXHhYZ7//rvk1CdWI5s/qlUMemaWjIAWvv89oCnhEOZTXpCsaApu0qIKZztz9oV6Z7WEtWgEo56L4tHGNmLlcqjaGf1cT37gSrxZYDoeUkIXCrt/OgVvzByptEXtaEwmZ1Ps8I1hIbcLD4KhL3vhBE1OQ7v7s6euwF7WNi0cMC9a5Iyd0Bv8A30Uyx9RB74NoMln9JpDpdRFIg9dCYGKIFDlhB8YGAjLly+HuLg4mDVrlk2QPQJqKuHjCh89ZcouknEC4CdvvRK5l0y1i2ScALzO6HyzIMnL8uMGJ9h95bhFvGXK9Voy7MncGgSH+gMekMJDQrjallUXlnwWPgM/oOLGDkDhihlP7yLpV7XgpIeb1ah3z815BLdupJj9BS2sI7ipP+8KTkp0wraqR9X+n1/lhI8Qo8/71NRUmyF7bBN+lzaSkVpZ4tX3NajV7xXIv3yKZ3UPbc+vD1ZOB4/CSxDUpwHUaeIFGVcf8ism3th3C67vvwXdi54Bv6IgSHG6zstg+EDaTlh+6ht+T38IAUKAELAkAjZB+JbsUFXUFdS+F39sUPue/Hroyw8B466fOsDvm7cPhPBInSfJzV+d1mtiK58WgP9Q0Ae+Jfzg6z2AbggBQoAQKEaACL+CP4Xf702BQ1/MZ+R+UKkp6rV3ebhBwXK4ePo2JMTdgYunboMg/uGvtIfdk9KhJSP69Vc2KuWQ+MeHjLHYpq1SMQUIAUKAEGAIEOFX8GeAhK8lOAEg4SPJawkSPpK7lljKSkerboojBAgBx0WACL+CYx/16h9BrOjlqtZOGw2RkQ8BV/Nq2bLyFFyOzuOEL9Q5Ig+u+NdJq34RT1dCgBAgBCqKABF+RREsLo/Ej4Ire6G7L06CES+340FU7aCgekcI6fAFEnQlBAgBayNAhG9thKl+QoAQIARsBAEifBsZCGoGIUAIEALWRoAI39oIU/2EACFACNgIAkT4NjIQ1AxCgBAgBKyNABG+tRGm+gkBQoAQsBEEiPBtZCCoGYQAIUAIWBsBInxrI0z1EwKEACFgIwgQ4dvIQFAzCAFCgBCwNgJE+NZGmOonBAgBQsBGECDCt5GBoGYQAoQAIWBtBIjwrY0w1U8IEAKEgI0gQIRvIwNBzSAECAFCwNoIEOFbG2GqnxAgBAgBG0GACN9GBoKaQQgQAoSAtREgwrc2wlQ/IUAIEAI2ggARvo0MBDWDECAECAFrI0CEb22EqX5CgBAgBGwEASJ8GxkIagYhQAgQAtZGgAjf2ghT/YQAIUAI2AgCRPg2MhDUDEKAECAErI0AEb61Eab6CQFCgBCwEQSI8G1kIKgZhAAhQAhYGwEifCshHB4eDs2bNze79s2bN5tdhgoYRsDP3xuaRjTgGW5cuQe3rqcYzlzNUpycnaBDt2bg4uoChY8L4cShhGrWA2puZSNAhG8lxKdPnw5I+ubKO++8Y24Rym8EgecmDYAGQX48R/zZ67Dl+yNGclevpFpeHvDGzCd1jS4CWPj+99WrA9TaSkeACN8KkCPRI+GXR+yd8J2cnMDN3ZVDg6vSgoLH5YHJ5DJE+CZDRRkdAAEifCsMsry6T0hIgEWLFhl9yogRIwD/5ebmwvr1G+DgwQNG81fnxJBmgTD2xd68C0j4i2ett2p3iPCtCi9VXs0QIMK38ICpV/dI9kj6xgTJvmfPnpCWls6zrVmzGq5du2asSLVNkwkfKkENQYRfbX8q1HArIECEbwBUJOHyCG7Uyrp7eRM23KuAV5nwUKfSEPVjGX9/f4XwDx48aLerfCJ8MeoVv5IOv+IYOloNRPgGRnzFihUGUkpHJ9+8CTfZvxYREeDl5aVk8Mu/Cy0enoG67KolCbXbQLxXWyUpLS0NNm/eUmlk71mrBuRk5SnPNzeA+viatWtAdmYeFBWx5boJUlHCN/eZZa3wa9b2gJxs1v5C09qv1UVXZiXjVsO1Qlhiveb2zVqEj3ssOJ4Fj6y7v6KFJcVZF4FKJfyxY8fC7t272Uo2zSK9cnZ2hmeeeQZ++OEHyMsrP3FpNcYcwr8QHw8PHz6Ehg0bQiP2ryyiVz8Pif9+jQBIcfcHS27a9hnSDtp2DOWPO3PyMuzfHgf9R3SAJk0DwNu3FicYVKvk5ubD+birsOenU+qmlbpvHFIfeg+KhPqBPuDi4qykP2b6eDR53L8zDm7feKDEi8CLbw3iz8Qxc3VzEdGQn/dICSecuwE7Nh1X7kWgdh1P6D+8A+BkgeQqBDd8r1++C7u3xEJ6apaI1rtqEX7bTk0hqn9rwAkPSRYF67p88Rbs2hzLJrBcvTq0btp2bgpderYAL++a4MzMI7kwLB89KoDE+Juwf0ccZGbkaBXViysvnliJqYTfe3AkRLI+C9mz9RScjb0ibvm1U88IaN2uCRuj2sr4ICbYh19jL8Ox/Rf08tNN9USg0gj/pZdegrfeeguSkpJgypQpFSZ9/B/1T3/6E4wcORKOHTsGv/vd76CwsNBioyAI35RNV3xoYIMGcPvWLegR4g3fvRRZrnYc8nsCnp3+j3KV1So08tke0LxlY56UfO0+ICkHh/prZeVx+D/3Z4u3cJturUxDxnaBVu1CtJL04mKPXiw1ebz9x9Hg4emul099c42R9/qVe/WiI9oEwbDx3RRi1kssvsHV6NYffoELcaX3PdSE7+1TCwIb1dWqhsfhRvL3rA03GV5agqvfF94cCHX9St7ktPIVsjeGLeuOwEU2iRmSiuCJdZpC+L0GtoUuvVooTcDfwXef71buXVydYfxLfaFRk3pKnFbg3u00WPfVXsjNztdKprhqgkClEX6rVq1g4cKFULt27QqTPpL9u+++C6NGjeIw48bo999b1gbZXMLHhshkf/iKbgN24f6rvI3int8U//ld32AemtGniRL9zNdxoJVXyWBGQCZ8XMkDjjYKC+fk5LEVugu4M1WELGfZam67xip7+FPdAclXT1g9+Hbg4cGIXNRdnOHUL5f4ylvkn4ArfEa2uBoWZpmYlpdbssLHMod2/SqKQGjzBjBmQi/lngfYM/PYW0GNGm6lnrn+q31wLemOXn6Z8JGEldU4y/W4oJBBUaT31oCFcQL538LNmiv012eM4Kt6+SHCvNQd26QSrTZhloriiXWURfhRT7SBbr1bYlYu1y7fYRPqPnHLr8//5gm9CRDVOGkPMtnvwg3qsLcXeVzxDW7NZ7v0ytNN9UKg0ggfYWnZsiU3UawI6SPZ//73v4cxY8bw/zFxElm/vmKmfZ07d4aoqCi9kWvRQrcqys7ONtli5g/esXC9oDYczGvAr3oVatzcvXsX1qxZw00yf9dHR/4pvx4EJH1LiB7hF1d4dP95OLr3HCc7jEKVwtgJvZXXeCS7Re+v03s8rv6eea2/EodEuT36GCScvcHfBlDNEhEZDANHdiohVEbMX328HVLu6iY+UdhUHb4zUxe9/e7okgmJ1bd3+ymIO5bE1S+4Mo3sHAb9hrYXVfPJY8W8jco9BmTCFwm4Wt0RfRzu3EzlUfUCvHnbxQEtjMS0bz/dKYrwK6rIOvUoOUyXkZYN2zb+AniCFwX3Azoz1YicJz+vAFZ8uFFvj8BSeBoj/KgBraFbn1a8XfgnMeEmRH97ULnHAGI89S/jlLcnVEX9uOaQsh+D/6+Nf6UPBIUUvxWyMfjkX9F8z0OvIrqpNghUKuEjKhFsY3Px4sV8c7M86h1U3YwfP57/KBcsWMD19xVF29PTE7CuikgE25xFkTdhy6rv/v378Le//Y0TvrAKurR2Hi/2772l1RNl1adOVxP+icMJsG/baXU2iGgbDMOZ2kTIV8u3Qcq9DHELeqtA9j89vtqj7lwt4a0bw4ineyjRVxNvw4av9yv3GDCV8DtFhUOfwe2Usqh3jj1yUbkXAVRXoNpCyObvD/OJSNyrCR83aD9dEFNKbYXkhqt33C8Q8sl8fXKb8t44ZWLElfB//x0DuTmlVRxqVc3OmBNw5niSqNZieBoi/O79WkGPfq2V58X/yk4YM/WSWtqw/Z1BozrzaJzoF/9zvUL2Ii9OCjj+nsXquHVM3YVvACTVE4FKJ3yECc0WkfTr1KkDiYmJMHXqVJN0+jNmzICnnnqK/yj/9a9/waZNmyyGOrZBrOrLUylu1OKmq7kyd+5ciIyM5KSPZXHTFlVDllDr6BE+I2pjR++n/XU8X/FhG3D1+yvb5EVBIpyKacUbk4ZUPjwz+zPqhZ4QFt6Q3+Km39IPNogkfjWV8F9+ZzCgHxwUXJF/88kOHtb6I6tZrl+5C+u+3KtkUxP+52yPwtAGL5L9b2aMVNQYR9ib0OHdZ3ld+Cb09Kv9lHoNqWpEhjd//yRf8eP93dupsOoT3duCJfHUIvxufVpC1IA2ohl8w1VrIxwztGSbtEPHdlXyIsaINYn9IlAlhI9wou05kr63t7dJpI+E/Oyzz3KynzdvHsTExFh0VJ544gn+5mDRSk2oLDo6muvSxQrfklY6MuFnPcxlK9sfDbZI3lQ9vOcsHNlzjudF0kXyFfLDN/vhyqXb4rbUtTVbNQ4uXjVi4scfbtJbBZtK+FP/Mp45BXPm9Z8+ngi7Yk6WepaIwJO7WC9K5sMc+C9bwQuRCR/VK8vn/iCSNK8yDvLkgZYunaMidGXKmDwxE+494B4EivxcS+KpJvwDu85ArydK3nbU+yi8MdIf3EuZ/H9jlRhc5V88nwy/7DtPxK+gYl+BKiN8hLFZs2awZMmSMkl/8uTJ8Pzzz3MrHCR7+TCTpYajAbOy+etf/2qp6kyuB99wLly4oLfCN7lwGRllwr/JNtzWGtlwk1fJMuE3a9kInny2ZH9j6ewNRu2z67CN2UnThystW/2/n/XMNE0l/Bl/f1pZafPKGMkaFPwVF8uj/AJYNqeE1GXCv38nHb5m+wrGBDeX/ZnJKQruP3y1Qpd/+NNs07q1btMa1Tg4kRkTWa2Cm8WL/6nbF7EknnqEr9GYhf8o25BB/o3IVaBFV+r9h4AO504yL5z4tkZS/RGoUsJH+Jo2bcpJ39fXV3OljyveCRMmcLKfM2cO/PTTT1ZDHfXpgYG6laLVHqJR8c6dO2HgwIE8xVorfLU5nroZhgi/Q/fmysaoqb5vZLJW69RNIXy000d9eXkEiWqJ5J9HJvxLF5L5pqSxemVif5ieza11MP9Tr/ZVNi/licBQXaHhzMLohRILI0G+lsSzLMK/eP4GxKw9bKiJSvzg0Z2ZeidEUdspCcUBXPnj2w7ux1TkgJq6XrqvfASqnPCxyyEhIbB06VKoW7euHumj3T7a76N9/QcffADbtm2zKkK4GYyqncqW06dPQ7t2ug1KWyN89YbuIrZSNfY/vUdNd25dIzD8/ss9ihULxplC+Jhvxj/YCr9YkHgz2D9DgiaaqJ5AdQ6uSnEPQohM+HeSH8C3//1ZJGlen2XulBsWu1PGur5ctpXne/K5KGjWohEPZ7GDWZ9+ZFg9hpk6MmuevsyqB0W2fLIknmURPj7b0GY3psmCvvXbd20GbTqEgi87YyDUaXIe3Kz9asU2xcJLTqNw9UDAJggfoULSR/WOn58fJ308TPXcc89xsv/nP/8JO3YY3rSzFNS4aYt7BZUt6JYBT+mi2BrhBzT0hRfe0L19YPvWskM7hg4lYbraUgf3DXD/QIiphC9vIh/dd47Z5+s2T0U9pl5lwjdFFfPmH0ZBTXYCF0V+K+o3rD372IjugzayisZQO0Y80wPCWzXmybKayZJ4qgl/FztxjAe9Xp8+ooSwmSps9Wf6ajVDbZbjkfQ79GgOrduH6J1T+HnzSWYamyhnpXA1QsBmCB8xCw4OhmXLlnHSx/vHjx/D+++/Dz//bHxVhnktJf/+97/ZQW71k2UAABXXSURBVCIPS1VnUj0FBQXsfyrdAShbI3y0sefqFfylMDnKNvTkw1G62JK/A5/sBOi6AEWLGE0l/DeYlUstZteOIm+e8ggz/siEjwfOls4xvAeBq1rsK1rSoMibxXjoDA9LCfliyU9GzRNfmzoMfOrW5tlTU9ibwlLdm4Il8VQTvlAbBbHT1E+93FfZA+EmpAuZCWk5TsniAax3/jRawUTL1FZgQlfbR8CmCB/hCgoK4oez0Hpn9uzZ3PdOZcI4adIk6NSpU2U+Uu9Ztkb42LhXJw8F33pevJ2ox/+CkVdGWpZeu/EGLVBeenuQQg63mQpltUqF0oRZ04wr9oePZdBsU2tD8Ak2cSj+XxhRf79SXzWEZYWgGWJYhO4N6eb1+/CzZNGjR/isgGwiKcqLKx4uk10MrGTqnAdMrYOiNqdENxR4GhfVNWqR9fSYJm+C472l8NQjfNYM2ey2KzPP7CmZZ6IpKpqkyoJnGJqyvQYU3Jw9dfSSnKyEX53Cxr/YlYTWgTQlIwVsHgGbI/yqRqx79+7w8ssvm92M8trhqx+EhI8uFyx98EpWT6ififeGNm0xrRV7rR8ypgsGuaBzsZXscJZ86AhPmb7GiEF2L7Bx1QHukEyUwyu3df/dSCVKXkUrkSyATslQNQHFbxY40Xzzn52lTu72YE7QuvctOVGqfgNREz4+I+5EEjfzlMla7XMGCR0PVskinzHAeFztbmSnV7FtQtSra0zD06myCwlL4WmM8LE9417qDU3CAkXTmMml/ibuuJf7cEd6PAObMLQO1AUzR3vjX+qjjMPZU1dg+8ZjSp0UqF4IEOGrxgsPg6Hpp7mChF8v745ZJ221nmGtk7YVIXxs54S3BjJzRV+9Jmcz18oP2Urfm6ku1I7RtByhicLT//6U8haAcWhZk5aaCZfOJeupi/Rs34sLo037fWYuiZ46cdUp+wLCtI/nb9IjYJnwkeCFugbDqGopfFwEdevXKWWhgj5j1B88R3UM2unL3j5RTZTOMECvn9gevTTWZkObppbAsyzCx41YnDTl08Nye9RnArAvuDmeci+dewyt38BXMVFF+BEzPKVsijfR4uGii40hQISvMSAzZ86EsLAwjRTjUT1Tfua+79V+7o2X0qXKLpWDZum7IzClvFYe2ca6ooRvqpdIbAe+9q/9fJdBa47B7G0BNwPVojVJaDoZUxdk97gxim8daNEji0z4aJbZKLgeeNbUbcrK+eTwXuZ+4iRzQ6El6HcH65QdwGnlwzgtr6EiryXwLIvw8VmYZxJu4rIJkgsj9TVsbMRk1ndoO+jYjfkHKn6T0mUq/Rfx/WHVfki+er90IsVUGwSI8DWGaujQoYonTo1ko1GC9DETEj8K+rpHEa4XkNyFyB9IecBcM7T763qRVOGrTJZlEb68yWiM8FD10a5LmJ7qRjQUVTwnjyQw52znRZTmFVeeXZn+uF2XZpyQRCYtwsc0VIGg/3pU86gF3w5QzbCX+fLX2guQCR/11KiOGMLcCYSj22gVyaEztF1bTsLlhFvqx+jd49vMwFGduAsJ9DWjlrSUTNi34zQkXripTip1XxE80Z//W8yqiAsjclmHLz9IrZaRT/5iPnQXPZJZFeGbgHgDEuUR0zvJqUx1dUDv2wUina7VCwEifI3xwo3jP//5zxoppkXJpG9aCQAk+4PMH74lN21NfXZ58uGJWvwICtrd41ez7t5K1XQnXFbdWL4mW3GjRQ9uLMp6dXVZXJn7N/DhxJSb8whu3Ugpt3oBiQ1NJFGdg/r128kpeuaj6mdr3WMdWL5+oDdTCTnztwv0RSPvbWiV04qzFJ5adZsTh5ZFiAtOpNeS7hLJmwNeNchLhG9gkCpqj9+zxi2I8jDsc0Z+7KHcQO5SGeM+/vhj9tWkR3IyhQkBQoAQsAgCRPgWgVFXCR7cQvfPshdPtLjpHuzDPWDKj0JvmEeupVnEGkeul8KEACFACBhCgAjfEDJmxo8ePRrwHwo6Q5s/f76ZNVB2QoAQIASsiwARvoXw/fzzz/Vqmjhxot493RAChAAhUNUIEOFbaATwG7viAyqo0pHVOhZ6BFVDCBAChECFECDCrxB8+oVRpRMfH89VOvopdEcIEAKEQNUjQIRf9WNALSAECAFCoFIQIMKvFJjpIYQAIUAIVD0CRPhVPwbUAkKAECAEKgUBIvxKgZkeQggQAoRA1SNAhF/1Y0AtIAQIAUKgUhAgwq8UmOkhhAAhQAhUPQJE+FU/BtQCQoAQIAQqBQEi/EqBmR5CCBAChEDVI0CEX/VjQC0gBAgBQqBSEKhSwo8aovt4w6Ft0ZXSWXoIIUAIEAKOjAARviOPPvWdECAEHAoBInyHGm7qLCFACDgyAkT4jjz61HdCgBBwKASI8B1quKmzhAAh4MgIEOE78uhT3wkBQsChECDCd6jhps4SAoSAIyNAhO/Io099JwQIAYdCgAjfoYabOksIEAKOjAARviOPPvWdECAEHAoBInyHGm7qLCFACDgyAkT4jjz61HdCgBBwKASI8KvJcL80sl25Wvp1zOlylaNChAAhYH8IEOFXgzFtFx4A86cPLldLh7zzdbnKqQs5uzhD976tICjUH04ciodL55PVWeieECAEbBwBuyP8Ll26QFJSEqSkpNg49KY371+M7CMZ6ZdHLEX4/Ya1hw7dmitN+HzxFkhPzVLuKUAIEAK2j4BdEX5UVBTMmTMHkpOTYfLkyZCammr7I1BGC9Wr+7iEO/CHRduNlkL1z4vDI3keSxH+K5OHQN16dZTnHth5Bo4duKDc22vA1c0FnJ2deffy8x7ZazepXw6CgF0RfkREBCxevBi8vLzg8uXLnPTT0tKq9VCqV/fvMrI/zUjfmFiD8Dt0bw79hrbnjy0qKoKPP9wEebn2T4CTpo+AOj41eb9jj16EPT+dMgY9pRECNo2AXRE+Ih0eHg6LFi0Cb29vSExMhClTpkB6enqVDkJ5N1yx0WKlLjrwzZY4ETR4jWwWoKiALLXCx4c1CPKDJmEBcPpYIuRk5Rl8vj0lyIR/7vQV2PbDMXvqHvXFwRCwO8LH8WvWrBksWbKEk/6lS5dg6tSpVUr66lV6Zf7GLEn4ldluW3kWEb6tjAS1wxII2CXhIzBhYWGc9H18fCAhIQGmTZsGGRkZlsDM7DqI8M2GzGCBWl4ekPUw12C6pRMqSvjuNdzAif1fVlH1lxOrBPuezd6sCh8XWrqbVJ+DIGC3hI/jFxoaCkuXLgVfX1+Ij4/nK/3MzMxKH1p7IPzARnVh/Mt9OHZonfPNJzv0cERi9PB0g8LCIp72MD1bL13c1PGpBS+9PYjfPnr0GD796EeRxK/PTRoAfv66zeGY7w7D1cQ70KN/a2jftRl4eLgD4C+WyaP8AjgXdxX2bTsNBaweWSZOGw6eNVleJrFHL8GhXb/KyXphJ2cneGPmk+DqqtuY/XHtYd6PQaM683zu7m7KM6EIID+/ZN/ik39Fw+OC0uTbumMo9GAmrLXreDKy1zUY9z1wojp28AKcYm3SkuCmAfDksz14UsrdDFjz2S5A66im4Q35PgLWlZudDx/P36RVnOIIgTIRsGvCx96HhITwlb6fnx9cuHCBr/Qrm/TtgfCRjAThI8kt+WC93o9r6l/Hgwuz1Uf57vPdkHztvl66uKlbzwtemTyU3yIJLnp/nUjiVyRfXMmiHGREHdmpKXh56zZNeaTqD1rOfLViO8gTzLMT+0PD4Ho8Z3ZmLvxHNanIVbTuEAKDR3fRRTFC//hfmyCiTTAMGN5BzqYZXvrBBigoKJlsXNik8cJvBkK9AG/N/CLywf0MWPXJTr2ymBbRJgiGP9WdZ8MJ7fyZa7z/ohxec3MY4bMNcxJCoDwI2D3hIyjBwcGwbNkyQNI/d+4cTJ8+HbKyKs+GnAi/5KdpDuE/ZqoLMYlgDUiCeABMjsP4/LwCvuoVqo7Q8AYw5oVemMTF2JmB53/zBODbCwoS8cpl26B5q8YgVvg1mEpGvFVg/fhWgoJvFf9dGANF7I1GyKtThoKvn5e45VcxIbi6uujFi2fJkTLhy/E8zB7zuLCQE776rahUXoogBAwg4BCEj30PCgri6p369evD2bNnOelnZ2urHQxgVe5oIvwS6MwhfFEqKeEmU93EQWrKQx7VOKQ+X5V7+9YSWeDsqSuwfWOJBc3k/xsLbu6uPD3ueCL8HHNSySsCqM6Z+pfxzM4e/zcA+HnzSYhjFkiymKrD79KrBfQa2FYpmnr/IfzIVFIpd3UWYtjv0WwS8qlbW8mzZ+spiD1yUbnXInxUn+3eEgtXEm/rTS5KIQoQAmYg4DCEj5g0btyYk76/vz+cOXMGZsyYATk5OWbAVb6sRPgluJlL+Pdup5XaL8DaPDzd4Te/Gwl4MAoF3waWzCpRMw0b3w1atA3maYbUOrI6B/cesDyqmWQxlfB/++ex4F5DN8HkZOfB//69uZTKBieg12fgXodufwF1+p8uKNnDUBM+ThZfs70S+S1CbhuFCQFzEXAowkdwGjZsyNU7AQEBEBsbyw9nmQuaufmJ8EsQM4fwkcRRX42qHC2R9xUwfcM3++Hqpds8K6pWUMUiREutI6tzrl+5C+u+3CuyK1dTCD+goS+88MZApcxXy7dByj1tizC1ugn3F3BCQlET/ndfsL2Qq9p7IcrDKEAImIGAwxE+YjNx4kSYNGkSs7jIh/79+5sBV/myEuGX4GYO4aNa5MtlW0sKa4Sm//0pxRJGfRL2NzNHQm0vT15KrdZBixfcaBbqnHUr98L1y3dLPcEUwkdVDqp0UPBNYfE/9Tei5UpRlz/lL+OUKLREunjuBr+XCb+sepQKKEAImIGAwxH+2LFjYebMmZwkVq1aBStWrDADrvJlJcIvwc0cwr94/gbEMDNJY/L2u6PBo9gEU50/akBr6NanFS+uVuu0ah8CQ8borHNw03f53B80H2MK4cvqI16JvlaodL34f12x7N8RB8cPxvM7mfDxrWbZHO02ibJ0JQTMRcChCF8m+9WrV3PVjrmAlSc/EX4JauYQ/qHdv8LRvedLCmuEXnxrENQP9OEpN67cg++/3KPkwkNPv/3TGMXKRlbryOoc9YavUgELmEL4T73aF4JC/OViJoePM1fT+7fH8fxE+CbDRhnLiYDDEL5M9mvXruW2+eXEzOxiRPglkJlD+Kb4rpHt9tGaZ9O3B0sexkIT2ITgXzwhCLWOWp3z2aItkJGmbaZrCuGPej4KwiIaKc81dAZBZPBlljqpD3QHAPHg2O3kBzyJCF8gRFdrIeAQhC+T/bp162DhwoXWwlOzXkcj/I2rDsDli7c0sQhpFghjX+zN08o6eGXIQkeueNrfnlL08ILQ5fQWkcEwbFw3HiXUOi3bNYGhY7vyODyw9b+Fm+UiemFTCL8/O6SFJ4FR0O4eD2SVR4jwy4MalTEHAbsnfJnsN2zYAAsWLDAHH4vkdQTCl+3e920/zb6KlaCJXfd+raBHv9Y8rSzCL0uPjXb46EZByPZNx+Bs7BVxq1zlU8Co1kGde4PGfjwd3S4c3WdYbSQT/nnmymHrhl+UekUggpl/Dmd1CkHXB+gCwVwhwjcXMcpvLgJ2Tfgy2W/cuBE++uijUnbW5gJWnvyOQPgvvzOY+cDRuRRQ69JlzN78wyioWasGjyqL8DGTIZJFtcyk6cNL3C6wjdLFzN2DOG0rP3P0Cz25PxqMizuRBG06hOreCliZpXOYewSVLx65LD4D/f+gXLt8B9av3Ccn87BaRYQqmtX//blUPozwZH0f91IfcGbtR0ErHXGgjAifQ0J/rIiA3RK+TPbR0dEwf/78KiF7HDtHIPwhY7tAq3Yhup8qI9IfVu2HK8U28RiJfmZGPd8TQsICdXnYX1MIHzPv/ilWz+EYnpDFupo2b6DUdZP57lnLfPhoidpOXuS5w4j5WwPELPLIm7uorvliyU+QmZEjkpXrmAm9IFRqT2J8Mvy45rDebw5P2T7zWn/FVxDWt2z2D0oeInwFTgpYCQG7JHyZ7GNiYmDevHnK/1RWwtFotY5A+E2Ybn5csW5egIF29OlsM7RmbQ/2eUQv5pFS359MmYTPJg7Zj819dpjJ3c1V555At0Dmj8J6Pl0QoxxgEs+Xr7L5pojfsu4IxP96XdxqXgeN7szfCOREJHz0mvn1xzuUNwo88fv2H0fr9RHblZGWDRnpWVDHuxZ445uC1G61OokIX0aZwtZAwO4IXyb7LVu2wNy5c9lhmNIubK0BpqE6HYHwse9RA9owu/eWhmDg8WgC2ZrZwKOURfh4kCqyc1gpZ2m8cPEfrCN6zSFIir8pR5cKqz/CruXxs1QhFoE2/m8yD57otE0tam+Z/g184NmJAxR3D+r88v1p5t9nl8q/DxG+jBCFrYGAXRH+sGHD4L333uOHqrZu3QqzZ8+ucrLHQXMUwse+9hnSjq+Ia3gwL5OSoPri4M9nIOHsDe4DB5O0TpPKZpZ4KOkCcxGMLoMbFbs7lqqE+3fSATdq79xMlaM1w6g7f4vtHwhJZBNE9Gp9E06Rpr6inX/vwZHc1l6czMU8asLHOM+aNQDfClC9I+fFNJS0lEzYGXNC81RvWItGMOq5KJ6vrA1rnon+EAJmImBXhB8YGAjLly+HuLg4mDVrlk2QPY5Hu/AA9o3ZEt21mWNUoexfx5yuUHlRGAkM9dQopqyO0VEYWsLUrF0Dbt94AGnFdueiPkNXNeGLU6i4wm7IvqmL5IuqItwYRd/wpopf/Trw8m+HKNnxAy5o9mmO4N5BHeabH1VTWcz/jbHnY158pjgU9oCpo+6y55EjNHMQp7yWRsCuCB/BQZ/3qampNkP2lh6wqqqvW9+WENW/DX88fq5vxbyNVmmKIcKv6MPQ9h/PAKCovVRWtG4qTwhUFwTsjvCrC/DVqZ0DRnbkenex6WrKgajy9s/ShI+qpc7MsVnXYudm2C61H/rytpXKEQLVDQEi/Oo2YlXQ3hn/eFrvqTuij8OvJy/rxVnqxlKEjzr/cewbvGKSEu1DVQx9MUqgQVdHQ4AI39FGvBz9lQk/kfmriVb5qylHlQaLWIrwZW+Y4mGoyvn6k+2Qk5UnouhKCDgUAkT4DjXc5evsM+yj4Ljpip//E46+yldT2aV6Mt/yfv51eMYTB+INfgy9rJqCQv25dQ+abaaztt9im7xo9UObpmUhR+n2jAARvj2PLvWNECAECAEJASJ8CQwKEgKEACFgzwgQ4dvz6FLfCAFCgBCQECDCl8CgICFACBAC9owAEb49jy71jRAgBAgBCQEifAkMChIChAAhYM8IEOHb8+hS3wgBQoAQkBAgwpfAoCAhQAgQAvaMABG+PY8u9Y0QIAQIAQkBInwJDAoSAoQAIWDPCBDh2/PoUt8IAUKAEJAQIMKXwKAgIUAIEAL2jAARvj2PLvWNECAECAEJASJ8CQwKEgKEACFgzwj8PwAAAP//hb/95QAAQABJREFU7Z0HXFVHvsf/VJVepIiAIAgaY4uiCbYYjUajRk3ZNFM0fa3PTXb3ueXt+ixrdO2mbJIXNcaYGGIQiSWaWGKNDQICUmwoFqSD9Df/uZzDuYd7L5dbj/f+Jx+5c87MmTPznZvfmfOf/8x1AIBG9s8qIX7MRH7fI7sTrXJ/uikRIAJEwJ4IOLDGkuDbU49TW4kAEbBbAiT4dtv11HAiQATsjQAJvr31OLWXCBABuyVAgm+3XU8NJwJEwN4IkODbW49Te4kAEbBbAiT4dtv11HAiQATsjQAJvr31OLWXCBABuyVAgm+3XW8fDXdwdIB+g6LBydkJGuob4NSRLPtoOLWSCGggQIKvAYoST00d38egam1KOmfQdbZykbtne3hj3gRVc9iKkxX/+MZWmkbtIAJtJmBzgh8XFwe5ublQWFjYZhhKvaBPTBAsnTPaoOqNeWeTQdcp/SIHBwdwcXXm1cSRe11dvcYqk+BrxEIn7ZSATQl+fHw8LFq0CPLz82HGjBlQVFRkE936PhP73kz0DQm2KvgR0cEw+cWhHAkK/qoF32rEQ4KvEQudtFMCNiX4sbGxsGrVKvD09IS8vDwu+sXFxfd018pH9ylZN+DdlXt0tgnNPy+O683z2IPg4+Yg2kw1JPg6vyqUaGcEbErwse9iYmJg5cqV4O3tDTk5OTBz5kwoKSm5Z7tVPrp/j4n9OSb6ugIJfjMdEvxmFhQjAjYn+Nil0dHRsHr1ai762dnZMGvWLKuKvqETrtgWYaSOcQxfJKeoIjr+9o4OEk1Alhrhu7Zz4TWqqa7VUTPTJUlNOsaM8Nt3cIVqVufGBsP3EMQyGtj1pmi7o5MjuLK5ibtVNaaDRSURgSYCNin42LaoqCgu+j4+PpCVlQWzZ8+G0tJSq3S8fJRuyUqYSvDDuwbBhN89xKteeLMUvvp0P/h19IRxTz0IfgFe4MSECgMKX/GdMti/8wxcybvJzwl/+j3YDeJH9OSHdbX18PHyJGhs1C60Q0b1gj5xUTz/bXbPreyeL771KHj7uoOjoyM4uzgJRauJbVb6Vdj7/a88TdMIP7pHZxgQHwsdg7xVE7+sCpUVd+HmjWI4uOscFN7S/T3ByeKHHr4PevaNBBR7wP+LWMC2VFXWQOqpXDh+MB3q6xpUCbK/z05/BPwDvfjZpK+Pwu2bJTByfH8I7uwH7u7teXnIsaqiGg7sPguZv12RlUCHRMAwAjYr+IgjMjIS1qxZA76+vpCZmclH+uXl5YaRMuIqWxD82PvDuLgjhtqaOiZE52AUEylB7DThOX0sCw4wARWCl487TJ8zTjiEXd+dgPPnLonH8shb702EDm7t+Om8C9dh++bD8PYfn1CJrDyz5Pgye9B8u+EAPyMX/O82H4LJL7DJ3iaRllzGo+jts3HdbigpqpAn8WN8SKBgCx5CGjOxkzhC3/Kffezh1/L7hm6iWC8MR39Og34Du0F7N/bg0BJyMvMhccsRLal0mgjoT8CmBR8xRERE8JG+v78/ZGRk8JG+pUXf1gQfTSiN7D90jeSBHaNZpF17lVlHdVL19/C+VDh5KEM8NX3O4+Dl48aPr18thK8+2S+mSSM+fh7w6qyx4ikUz4L8O/ACjvDZg8ORLaiSim713WZT0tkT2XBk/2/8WjXBZ2dw5IzXYsC3jNraOv4AEdvCzuMD7cP3E3k6z9j0B8t6be548XohDcvBB4gzW9wlDTjC/2hZIkjrhulSwUeWwsOHvyGwUb0r4ygv67svDsHF7AJp8RQnAm0mgN98/MpZJVjqF6/Cw8Nh7dq1gKKfnp4Oc+bMgYoKzSM4c4CwOcFvgoSj4R93nOImB3SNRPNGX7aq9aGHVWYbzIbnP1q2Q7RJDxrWA+IfuZ+XgOK7mrlTajLrjJrQH3r178rz4Wj5g399z+PCH4Ns+E0X4+j9m89/hrKSSn4GTUNPTh0GIeEdheIheduxFqaUqW+P5mYgIVMue+tAE1BRYRk/5R/oDY+M6wehEQFCFsi/fBu+/uwn8RgjaoLPjrH9iV8dgdzMa2K+/vExMOxRttiu6ZlaWlwBn65MFtMpQgQMIWAXgo9gwsLCuHknICAA0tLSuOhXVqr+hzcEXFuusUnBZ8OEbzb8DFcv3mqBYtjo3tCf2ciFcOpoFhxkJiAMOHKdMX+y+HagzawjNeec+zUH9iedForjn4YKflVlNXyyYmeL0TuO8H//50niW0PamTzY0zQPgDfEeYNps5vNUbdvlMCmDzS7x6LZCs1XQvhg6fdwl9n2haAm+IxjAjMzXdIwep/wbDxEd+/ML6tnD058OFIgAsYQsBvBR0ihoaFc9AMDAyE1NRXmzp0LVVVVxvDT61pbFHxNIiyFgeKIIolBPjp97vWRfIIS065fYWYdNhkrDXJxxTeEyvK70ixgqOAfO5AOR39KUytLOJj4XDxExaoEtpBNpG5c3yzo0jcOfDNZv2Q7N/0I10o/O7i3g7f+wH6vuWl0fvzgedHEhPmkgl9aXMlG7jull4vxoBBfeP6NUeLx6v/9VutEsJiJIkRABwG7EnzkEBISws07QUFBcObMGb44SwcfkyTZouCjSKNYawujJ8UxL5YInixfCdvtvlAY/4zK40eTWUcqrjjp+X+rf2hxG0MF/4sP98KtAs2L8YY82gviBnfn96pgD5iP2YNGCFJzji6RFvJL31DwLQhNSEKQCv6F81chaetRIUnt08nZEWb95UnxHL6ZCGYo8SRFiEAbCNid4CObadOmwfTp06GmpgZGjBjRBlyGZbVFwV/5j20abe8CofsfiIRHJw4QDmHF/3wjxjEy8y9TxIlJuVnnzXcnghsbJWNAb6DTzCQkD4YKvrwe0nK53Xy0apM6fKPANwshvP5f48HDqwM/vJRTAAmbDglJGj+lbzF3mI1/w5pdYj6p4MsntcVMTZG5f39afFMgwZfToeO2ErA7wZ88eTLMmzeP25A3b94M69evbyuzNue3NcFHr5Q1CxN0cvBnvvkv/X6MmAcnXaWLicYzn/5uPUJ5utSsIzXn4GTm6v9N4BO/YkFNEYMEn9nLtW3BgMXqEvx3/jRJ9EKSu5vK64bHj00ZCD16d+FJFWXsbWF588NDKviH9qbAr79kaiqCnyPB14qGEgwgYFeCLxX7LVu2cNOOAczafImtCT76dekSTgQU0zMUHn9aZbbBY/kbAXq0vPTOaEzirpKCt85I5p3Tu8k75xrzcNkq83DhF7A/lhb8N/7AfOc9VL7z2Rn5sIN51egKT7/ysOitIzdLkeDrIkdp5iRgN4IvFfutW7dy33xzgpWWbXOCzxqHi5N0rUgdwdwT+w6M5hjQTr/qn9ukSHj8TSaibk0iKph1pOac7V8ehrys6y2uwxOWFvyXZ4xhK4tVq2PRDfNziYlGUwWloi59g8G80jQa4WuiR+fMRcAuBF8q9tu2bYMVK1aYi6fGcm1R8FuzPT/PPHGC2FYBGNAV8sOliS3YDGXum7jFAQYUxR8Sjouuj7j4ae2i71pcI5ywtOBLTVC4/mANMzVpC/grWzjZKizwSmFupfskbqUk+NrI0XlzE7B5wZeKfUJCAixfvtzcTFuUb4uCj37hn61KhvLSlm6tsb3CYdyTg0QO51Muwa6EE+KxEMGFWm+/9wSflMS3gN+Y77tgzsH9Y3Dxk7bQhe2HP6VpP3zMgwKMQiwPaittWzFF6bLhdwrz51sqCOVnprH6faO5fk++PAzCI4OErJyTdKsGEnwRDUUsTMCmBV8q9tu3b4dly5bp9CwxF3tbFHxkhZORGz/YrbaoKCDYh/uOC6NbtPdvXK/d/IN2fLTny8OGtbvgzu0y+WnxGD1m0HNGCNrWBZhK8PE+UnMTHuPGZqePXsCoGHAVMa4mFgIKPT4YpYEEX0qD4pYkYLOCLxX7xMREWLp0qVXEHjvT5gSfibiwqAjbhy6MxUzYOjLhdm2n+tlBPI8hi42Ed2oZCWO63H0Tz8m9WvCcpjDn70+JK3YxHd86iovKITs9X1zoZErBDw71g+deG6lWFVxjgPfE4OPnKZpx+AnGacO6lg8uEnxOh/5YgYBNCr5U7JOSkmDJkiVWE3vsU1sTfLSv57B9X7oz042ucLOgCL78eJ/OveZxS4NZzCcf94EXwonDGfDLj6nCodZP6eIuaSZdu2Xq8i7SZdIRyu+J6wuYJ5F0szUhTfqJJio0SV1gWzXLAwm+nAgdW4qAzQm+VOyTk5Nh8eLFzO1P877kloJsi4KPE6p9mBfOULZnvXTXSmSKtnScqJRujayL9VOvDIewiEBVFjYqXse2LdDnx0RwcnTgkO5sz/xocbthLEQq+HybA7aQiwdWti7B7zWgq2rLZ5YZV7TiQidNIbCTj2r/+hA2KY3/B0kDuwdumPbjjl+1mqSki7ha89KRvsXgxDdOgFMgAoYSsCnBHzt2LMyfP5+Pvnbt2gULFy60uthjx9iq4AtfOk9vNwiLDAQU4BtsC2P8gRRNO2AK+eWfL7w1CgKDfflpXZuSya+THuN+8m5s73wcWaPdvC33l5bTljhuBBfAxB+3csYR/x32wym32I+oaPvhk7aUTXmJgDkI2JTgBwcHw7p16yAlJQUWLFigCLHHTrN1wTfmi4l++G+yHwQRRsqatiU2pny6lggQgWYCNiX42Czc876oqEgxYo916hODvzEbjFGLh01Jqm2Jjb2x/BevdPnI63sv3Dd+7JRB4h41+EMhuAslBSJABMxDwOYE3zyYqFRTCj5uLBbI3DelE7VIWFhtS7SJABEwDwESfPNwtblSTSn4cn92hPUL+0nCE2zfeApEgAiYjwAJvvnY2lTJuPvlYLZfPIbykirYv/O0we178uXhEBjkwz1OCm+Xwtnj2XCF/fA4BSJABMxLgATfvHypdCJABIiAYgiQ4CumK6giRIAIEAHzEiDBNy9fKp0IEAEioBgCJPiK6QqqCBEgAkTAvARI8M3Ll0onAkSACCiGAAm+YrqCKkIEiAARMC8BEnzz8qXSiQARIAKKIUCCr5iuoIoQASJABMxLgATfvHypdCJABIiAYgiQ4CumK6giRIAIEAHzEiDBNy9fKp0IEAEioBgCJPiK6QqqCBEgAkTAvARI8M3Ll0onAkSACCiGAAm+YrqCKkIEiAARMC8BEnzz8qXSiQARIAKKIUCCr5iuoIoQASJABMxLgATfvHypdCJABIiAYgiQ4CumK6giRIAIEAHzEiDBNy9fKp0IEAEioBgCJPiK6QqqCBEgAkTAvARI8M3Ll0onAkSACCiGAAm+YrqCKkIEiAARMC8BEnzz8qXSiQARIAKKIUCCr5iu0F2RqeP76M6gJXVT0jktKfZ7ulOYP4RGBHAAVy/egutXCu0XBrXcrgjYnODHxcVBbm4uFBbazv/EfWKCYOmc0QZ9Mce8s8mg62z5omenPwIo+hgy065A8jfHbLm51DYiIBKwKcGPj4+HRYsWQX5+PsyYMQOKiorEht7LkfeZ2Pdmom9IIMFvSY0EvyUTOmMfBGxK8GNjY2HVqlXg6ekJeXl5XPSLi4vv6Z6Uj+5Tsm7Auyv36GwTmn9eHNeb5yHBb4mKBL8lEzpjHwRsSvCxy2JiYmDlypXg7e0NOTk5MHPmTCgpKblne1M+un+Pif05Jvq6Agm+LjoAJPi6+VCq7RKwOcHHroqOjobVq1dz0c/OzoZZs2ZZVfQNnXDFtggjdYxj+CI5RRXR8bd3dJBoAqIRfktQJPgtmdAZ+yBgk4KPXRcVFcVF38fHB7KysmD27NlQWlpqlV6Vj9ItWQlzC34Ht3Zw924NNDY0GtwsN4/2UFVRDY2NhpfRwb0dL0OfShgi+M7OTuDo5Ag11bX63ILyEAFFErBZwUfakZGRsGbNGvD19YXMzEw+0i8vL7d4R9iS4Ds4OsCjEwdAaJcA8PTqwEUQgdZU10FpcQUc3JsCl7ILdDL2YNcNH9MHIrt1AhcXZ4Cmb2FVVTUU3iyFsyey4UL6VZ1lePu6w5jJA8Gvoye07+AKDg6sEPa8wDLu3C6DEwfPw0Ut9dBX8B98+D7o0bsLYH1R8DHU1dVDWUklXLt8G/buOGXUg05nAymRCJiBgE0LPvKKiIjgI31/f3/IyMjgI31Li76tCD6KLIoljsh1hfRzF2H3dyc1ZuneOxweY0LNBVpjDtXJc7/mwP6k0xpzoBA/OPw+3WUw8d//wxk4xx4e8tCa4Hv5uMNTLw8HbK+uUFpcCZs+2EOjfl2QKE1RBGxe8JF2eHg4rF27FlD009PTYc6cOVBRUWGxjrAVwZ85fwo4u6hGugjvbmUNM5NV8pE+mnak4Zf9v/FRtvRcdI/OMOF38dJTPH63qoZ/4khdGi7mFMB3mw5JT0FU984w8Vn1MhqYOQlNQi6uTuDazkUt/67vTsD5c5fUzrUm+K/NfRw8vd3UrkFTTm1tPWA7HdlbjhAqyu7Cx8t3CIf0SQQUTcAuBB97ICwsjJt3AgICIC0tjYt+ZWWlRTrHFgQ/MqYTTHp+iMjrJzZ6Pnu8efSMQjt99jho76YS7UomwB+9nyjmR5PI2398Qu2BcepIJpz8JVO0vaN55qmXHwZ3z+Y3iP/8OwnKS6vEcqaxewgj74b6Bvj685/VVsp2Du8IU14aJppg0PSy9bOfxOsxokvwu0QHw5QXh4r5cy9ch51fH4U6JvYYnJwdYeyTg6Bbj1AxDwo+Cj8FIqB0AnYj+NgRoaGhXPQDAwMhNTUV5s6dy2y+zWJirs6yBcGfzEQwgokhBrTVf7oyuQUu/wAvmPTCUGZqQVt6DXz58Y+ijXvQsB4Q/8j94jW/nc6DvYm/isdCBM0p02aPFc01mb+xlbDbVCthcdL01ZmYpsqNNnRN8wW9BnSFUeP780y1NXWwdtF3QvH8U5fgDxnVC7r3Cuf5iu6UwbcbDqpdKxzgw0t4IznE5i1+ZQ8uCkRA6QTsSvCxM0JCQrh5JygoCM6cOcMXZ5m7k2xB8Cc+PxiiYkI4KhTRj5btAPzUN6BQ+/h78Ow4YseRu7bQd1A03N8vkicX3iqFH749ri2rxvP4lvH2e0+IaasWfAv4NiAEXYIv5Gnt8+lXHhb349FkemrtekonAtYgYHeCj5CnTZsG06dPh5qaGhgxYoTZuduC4Pfqz0bNE1SjZgSGYp96OhdOHs6EyvLWzRmz/vokOLEROoaM1MttFnF+oR5/0OTi7tEBps8ZJ+Ze/b/fQn2d6QQf7fhPMrNRQLAPv8flvBta3wTESlCECCiAgN0J/uTJk2HevHncZLB582ZYv3692bvBFgQfbfCvzhrLXRTlwNAl8/aNYjh7MgcymZhrCnP/52nx9L6dpyGF5TU0oIcPevvE9AyF4BA/cG3vwiZSHdUmU6VlGyL4Pn4e0JuZhrpEBfM5AzQnObF7cBdSaeEsToIvA0KHiiVgV4IvFfstW7Zw044lesYWBB85oYfOM6+OgKBOvhqFD/PgSPr08Sw4vDcVD3nA69DDRwibP9oLN68btscRjq6ff2MkoK1f37DmfxO4/7yQvzWTDp9vGMHmG/D/Dj3C5bybbIR/QI+clIUIWJeA3Qi+VOy3bt3KffMthd5WBF/ghTZy9IPvymz6Xj5u4gSrkI6fcl986Qh/z/cnIe3MRWl2veL44EDbvNQ1FFfnVjH3UFxwVVNVC9XMfbKqspovmBIKbYvgP/L4A9AnLkq4lH+i+Qq9jrDsaraqGN1Io2I7i28UJPhquOhAwQTsQvClYr9t2zZYsWKFRbvE1gRfDi8sMhD6PdQNorqxSV3JqHj9ku1MIFVbEcxmNnw0i2BIO3sR9mzXvDBLXrb0GIUYBVkIx9lq2qM/pbXYksHF1Rlm/PdkIRu0xaQj9b5BV8tvNx4AnDiWh6deGQ5hEYH8NJl05HToWKkEbF7wpWKfkJAAy5cvt3hf2LrgC0C7xobAE88NFg7hx6RTkPprLj+WLma6U1gGG9bsEvPJI/6B3hDdI4S/OVy/ekd0vZR6xhTk34Et/9knv5Qf93uwGzz8WF8xTd8RPvr/vzFvgnjdJyt28m0UxBOSyDt/mgTt2NwBBhrhS8BQVNEEbFrwpWK/fft2WLZsWYvRoCV6xxYEHxcbeTWtPj2w5xwUMCHWFGb/7SnR1HH8YDoc2Z/Gsw0b3Rv6x8eKlxxkZZw6kiUeCxGcHH7z3YlsxSzbY4cF6cKpV2Y8Br5scRaGS2wVboJsFS5PYH9emjEG/Dt6CYd6j/DxV7DQvi8E+YNCOB8c6gfPvTZSOKRJW5EERZROwGYFXyr2iYmJsHTpUquIPX4BbEHwpaYOXHWKfvTClgjClzx+5P0waGgP4ZAJ8kEmzKq9+3Gy9Y0/TBAfBrjRWcIXzel4EZp8cA8bXC0rBFy8deOa6pfLRozrB30HRvMk9KvfuH4PFLG3BSHgxm7PMcEO6uwnnOKfcuHWNWkrfWBlZ+TDjq+OqJWFbzG4tYN0LyAa4ashogMFE7BJwZeKfVJSEixZssRqYo99bwuCj6tk0XtFCCi4KLaFbGdK3Bo5hI2OpfvPoG8+Ls6ShgGDY2Hoo6pf4hLO48OjtKSC75rp6cX2r8FvZFPA8j+XmH7Q1PPSO6OFZP6J97lxvYi7Tvr4eojzBNJMbRH8qW+Pho5B3uLl2M5bN0rYmo1a6Mjujw8ueSDBlxOhY6USsDnBl4p9cnIyLF68GBoamhfdWKMjbEHwcUET7nODwt5aKL5Tzvev0bQgSzpK11XOndulzEa/v8VOlLj4CxeB6QonDmfAwCHdxSxtmbTF/Xyee32UaFISC5FE0Gun4NodmrSVMKHovUHApgR/7NixMH/+fP66vWvXLli4cKHVxR6/BrYg+MLXuTfzlBkyshe0w10pJaNxTMcdJXEV7T4t2xoLZeCumcNG9xE3QRPOC2XgXvh7vm+5z46QDydlB7M3DvTGkQYUYpxfwIliqRuofGsFXEvQuYvKbJSZxvbq+Ua1V49QFu6RgxPE/oFeaqYbTL968RYkf3uM/yYA7uePITfrGnz/5S88Tn+IgJIJ2JTgBwcHw7p16yAlJQUWLFigCLHHzrclwRe+zGjDDgrxBT+2YRr+IMjVS7fEjdKEPK19oj9/YLAvMwV1YGVU8TKke960dj3u0IkTrR1YOdevFEJJkem3vA7s5AO46hZ9/a9fLRR3zWytbpROBJRIwKYEHwHjnvdFRUWKEXusU5+YIPYbs6qdJvHYkmFT0jlL3o7uRQSIgIIJ2JzgK5g1VY0IEAEiYFUCJPhWxU83JwJEgAhYjgAJvuVY052IABEgAlYlQIJvVfx0cyJABIiA5QiQ4FuONd2JCBABImBVAiT4VsVPNycCRIAIWI4ACb7lWNOdiAARIAJWJUCCb1X8dHMiQASIgOUIkOBbjjXdiQgQASJgVQIk+FbFTzcnAkSACFiOAAm+5VjTnYgAESACViVAgm9V/HRzIkAEiIDlCJDgW4413YkIEAEiYFUCJPhWxU83JwJEgAhYjgAJvuVY052IABEgAlYlQIJvVfx0cyJABIiA5QiQ4FuONd2JCBABImBVAiT4VsVPNycCRIAIWI4ACb7lWNOdiAARIAJWJUCCb1X8dHMiQASIgOUIkOBbjjXdiQgQASJgVQIk+FbFTzcnAkSACFiOAAm+5VjTnYgAESACViVAgm9V/HRzIkAEiIDlCJDgW4413YkIEAEiYFUCJPhWxU83JwJEgAhYjgAJvuVY052IABEgAlYlQIJvVfz633zq+D76Z5bk3JR0TnJkG1EHRwfoNyganJydoKG+AU4dybKNhlEriICZCdic4MfFxUFubi4UFhaaGZ3liu8TEwRL54w26IZj3tlk0HVKvsjdsz28MW+CqoqNACv+8Y2Sq0t1IwKKIWBTgh8fHw+LFi2C/Px8mDFjBhQVFSkGtDEVeZ+JfW8m+oYEEnxDqNE1RMA2CdiU4MfGxsKqVavA09MT8vLyuOgXFxff0z0nH92nZN2Ad1fu0dkmNP+8OK43z0OCrxMVJRIBuyJgU4KPPRcTEwMrV64Eb29vyMnJgZkzZ0JJSck926ny0f17TOzPMdHXFUjwddGhNCJgvwRsTvCxK6Ojo2H16tVc9LOzs2HWrFlWFX1DJ1yxLcJIHeMYvkhO4Z/tXZ3A2dkB2rVzhLq6Rqiqqoeaugae1js6SDQB0QifI6E/RIAIMAI2KfjYs1FRUVz0fXx8ICsrC2bPng2lpaVW6XT5KL2tlejQwQG8vAE8PB3Azd0B3N0AXNs5gJNTc0mNTOsr7zbC3SqAivJGKC9rhLIygKEvb2zOZIZYB7d2cPduDTQ2sNlTA4KLqzM4ODhATXWt3lfTpK3eqCgjEVAjYLOCj62MjIyENWvWgK+vL2RmZvKRfnl5uRoASxwYI/jBIY4Q3oWJPBP6toaKikb4r4VH4P+2mc5tEV0iH504AEK7BICnVwdwdHLk1aqproPS4go4uDcFLmUX6KxqWGQgjBjbF3w7eoEjKw9DPXOvvH2jBHZ+cxRKiirghbceBR9fd562e/tJyD6fz+P4hwRfREERItAmAjYt+EgiIiKCj/T9/f0hIyODj/QtLfqGCn5IqCNERDoys02b+lQtc0lZDfxz9RlYsyFd7bwhB95MgJ+d/gi4ebTXeXn6uYuw+7uTGvMMG9MH+j8UozGNn2QvCnt3/ApDH+0N7Tu48lM/Jp2C1F9zxWtI8EUUFCECbSJg84KPNMLDw2Ht2rWAop+eng5z5syBioqKNoEyJrOhgh8d4whh4aoRtDH3X7/pPMxZcMyYIvi1M+dPAWeXZjvS3coaZiar5CN9NO1Iwy/7f4MTB89LT0HckO4wZFQvtXN4UH23lpmoVKYdPG5sbOQmIuHtgQQfqVAgAsYTsAvBR0xhYWHcvBMQEABpaWlc9CsrK40nqEcJhgq+l7cD9OzlBO11D6h11qC4tAZ+N3M//HT0us58rSVGxnSCSc8PEbP99MMZOHs8Wzx2becC02ePg/ZuqlF5ZUU1fPR+opiOo/U3/zBBNAFhwnH2QDh9LAvwwYGmopieYTCamYukDxXMR4KPFCgQAeMJ2I3gI6rQ0FAu+oGBgZCamgpz585l3i1sltPMwVDBx2r5+jmAn78D+LBPLzZpq28oZxO3dwob4fW/7TFa7PGek18cChHRwfz2aKv/dGVyi6r4B3jBpBeGsklYYFxr4MuPfxQnc4eO7g0D4mPFa86eyIafks+Ix0IkONQPnps+UuVO0HSSBF+gQ59EwDgCdiX4iCokJISbd4KCguDMmTN8cZZxCFu/2lDB9/F1gOIilfeLszMw0wkTffavA5vAxVF/e2ZFqasHNvEJUMucXPDZVcUmasuYh05pSSNz1wQwlVvmxOcHQ1RMCG9sbU0dfLRsB+CnvmEaG/3jHACG0uJK9sDYqfXSIY/2grjB3cV0EnwRBUWIgFEE7E7wkda0adNg+vTpUFNTAyNGjDAKoD4XGyr4kV2b7fd5uSofe33uJ+TBB0ZJ3S04dKIAFqxpOZoW8unz2at/Vxg1ob+YFcU+9XQunDycCZXld8Xz2iKz/vokcyNVted8yiXYlXBCW1bw6+gJL894TEwnwRdRUIQIGEXA7gR/8uTJMG/ePO77vXnzZli/fr1RAPW52BjBj5CIfhEb7Zc0jfgxrin4MpH3Zv/wUwgL1pw1WvCd2c6Ur84aCx7MFVMe0CXz9o1iOHsyBzJTL8uT+fHc/3laPL9v52lIYXl1hTl/f4r3EeYhwddFitKIgP4E7ErwpWK/ZcsWbtrRH5XhOU0l+IbWwBSCj/fGydRnXh0BQZ181Wzs0nrVs9W+p49nweG9qeJpvA49fISw+aO9cPO67j2O3v7jE+SWKQCjTyJgIgJ2I/hSsd+6dSv3zTcRw1aLMVTw0STTr3+zG2SrN9KSwVSCLxSPnjgPDr8PujKbvpePmzgSF9LxU+6LLx3h/5BwHDJSNL8JCGXMZiYgcssUaNAnETANAbsQfKnYb9u2DVasWGEaenqWYqjgC8WjLV9q2hHO6/oUzD8xj23Qlc0kabhytt9D3SCqG5vUxW9UU1i/ZDv3scfD2X97SlxVm3IqF/btOCVka/GptrCKpZJJpwUiOkEEDCJg84IvFfuEhARYvny5QaCMuchYwZfeWzqRi7Z6aUD7vmDbF7x7TOWlI72PtnjX2BB44rnBYrJUqNEHX1ihe6ugGL74cK+YTx7pMzAaHhnXTzwtLQdPqj0Q2FQG/QCKiIoiREAnAZsWfKnYb9++HZYtW8ZXceokYoZEQwVfKu7W9tIZ++QgtoEb27WNhQN7zkHB1TsaSUlH8scPpsOR/Wk83+hJcdCzb4R4zZ7vT0LamYvisRDBh8Jrcx5nP1/Y7KFEgi/QoU8iYBwBmxV8qdgnJibC0qVLrSL22D3GCL7UlCOYaYQuF0bzwrHgmWMOLx3pJGpdbT38599JbGfOGuHW/DN+5P0waGgP8VzCpoNwKUe1d7+Pnwe8OnOsaPLB7RO++mQ/FOQ3PzhwNe6LbNM0z6YHi1AQCb5Agj6JgHEEbFLwpWKflJQES5YssZrYY/eYSvAN7WpTTNrGP8LEfFizmOOPhxcVlkHh7TK+mjYkzF9NqNE3HxdnSQO+JXTvFS49xRdvFd0pB3c2ssd/mgIJviYqdI4ItJ2AzQm+VOyTk5Nh8eLF0NDQ9kVLbUep/QpDBV9JXjpoYnnq5YcBhb21UMwEfOtnP7VYkIX73j/72iMQ3NlPZxE46sc3AtotUycmSiQCbSZgU4I/duxYmD9/PncT3LVrFyxcuNDqYo89YqjgC72pJC+d3nFRMGRkL7Zls4tonhHqiT9iksEWXu1LOi2c0viJ++r0ZROzuJhLGvCt4ezJbDi4JwXeeneiVsHv4N6Op/NradJWipDiREAnAZsS/ODgYFi3bh2kpKTAggULFCH2SN9YwZf2oHQiF88LnjryFbjm9tLB0XpQiC/4sQ3Tykoq4eqlW+JGadL6aovj9Xitr78Hm6B1gtvMc6fwVvMvkknnDOQmHW1l0nkiQAR0E7Apwcem4p73RUVFihF7rFOfGPyNWdVOk3isb5g4ppOYNXF327c3jo3yhIEDPE2yl45YEQtFSPAtBJpuY1cEbE7wban3/jqzH/x1Zl+xST8fL+DiLZw4cEL9ITB8YCcYOlD1YHl4UPMDxhSTtsI9LfVJgm8p0nQfeyJAgq/g3h7GRPvHTcyV0chAgm8kQLqcCNgIARJ8hXdkTdarRtUQ3wpGT/3BqDKscTGN8K1Bne5p6wRI8O+BHpabdvSt8r04shfahj927sMmdIF54exn2ymXl5r/l8mEe9MnEbBVAiT491DPookH7fQYBFu9tPr4QyeCXf8gG9lTIAJEgAhICZDgS2lQnAgQASJgwwRI8G24c6lpRIAIEAEpARJ8KQ2KEwEiQARsmAAJvg13LjWNCBABIiAlQIIvpUFxIkAEiIANEyDBt+HOpaYRASJABKQESPClNChOBIgAEbBhAiT4Nty51DQiQASIgJQACb6UBsWJABEgAjZMwKqCb8NcqWlEgAgQAcURIMFXXJdQhYgAESAC5iFAgm8erlQqESACREBxBEjwFdclVCEiQASIgHkIkOCbhyuVSgSIABFQHAESfMV1CVWICBABImAeAiT45uFKpRIBIkAEFEeABF9xXUIVIgJEgAiYhwAJvnm4UqlEgAgQAcURIMFXXJdQhYgAESAC5iFAgm8erlQqESACREBxBEjwFdclVCEiQASIgHkIkOCbhyuVSgSIABFQHAESfDN1SUj3PoD/2hp+3b6xrZdQfhkBBwcH6NqjF/gHdYJLWefhRv5lWQ46JAL2SUARgh8XFwe5ublQWFhoM70w4Y/LDRL8Hf+aB9cyztkMB2s0JPr+vjBiwtPirTev+RdUlpeKxxQhAvZKwOqCHx8fD4sWLYL8/HyYMWMGFBUV3fN9gSN7FHxDAgm+IdTUrxkx8RmI7tn8dvVT4teQnUYPUXVKdGSPBKwu+LGxsbBq1Srw9PSEvLw8LvrFxcX3dF/IR/cfvTpKZ3ukDwgSfJ2o9EoM6dIVHn9+Os/b0NAAG1csgNqaGr2upUxEwJYJWF3wEW5MTAysXLkSvL29IScnB2bOnAklJSX3JHepeGMDTn2/EVqzy0uvIcE3Tbd7+fpBQKdQuJKTCTXV1aYplEohAvc4AUUIPjKMjo6G1atXc9HPzs6GWbNmWVX0B0x6qU1d6+XuBs5OjtCuU5Sa7R4FX5/Q/wnV/Ujw9aFFeYgAETCEgGIEHysfFRXFRd/HxweysrJg9uzZUFpqnck2uVmmNbgP+DtCrJcjHLtVD3nlja1l15puCcF3bdfOyFGvA7i2Z2XcxZGz4W1FCM4urpxFXa31TS7o3YP1qa0x5o3AeDYODo6sHs5khuLfDPpjSgKKEnxsWGRkJKxZswZ8fX0hMzOTj/TLy8tN2Wa9ympN8N2dAeL8neB8aQPcqGqEiWHOgOfyKxvh4I166OTmAGHs34nbDXrdT8hkDsFv16ED9H3oYQgO6wL+gZ3AydkZ0LZddKuAuSxegVMHf4S7VZVCFTR+Yhn3D4iH7n3jwM3DU8xTWV4GF347A6nHD0NVZYV4XhoZOnYSdAqP5Kd+TPgS6upqoVfcYAiLigVPH19+PnnLZ1B4swAmTn1DvDT5q/+D8hLt8zkdg0PgkSd+x/PXVN+F7Z9/yOKN4OHtA+OefZWfL7xxHfZt/0osUx7x9usIvQcNgYjYntC+gxtPRnv/7YJ8uHH1EqSfPg4VZboHHcawEerjFxjM+QZ2DgPfjoH8NLbpDmNyJScLzh07BI2NbfsuCWXTJxEQCChO8LFiERERfKTv7+8PGRkZfKRvadFvTfDj2Ig+mo3oMRRVshFhtUowXVxcoNrFHfzbIVqAXwsb4AJ7KOgbTC34AZ06w7jnpoFru/Zaq4ACt/fbLyD/Yo7GPEGdw/kkKD4otIX6ujpA0S5gIikPE196E7AMDAd2JsDAEWOgg5u7Wja8Fu//7Nt/EB8CJw/shbNHflbLJz2IHz0BevZ/kJ9CX/vEjR/xuI9/ADz9xhwexwfZppULpZeJ8Z4DHoL4R8eLx5oi2K6drG4o/pqCsWywzJheD8Dw8U9qKl48V3T7Juz+ZiOUFd/7XmxioyhicQKoSsa9k5upyuHh4bB27VpA0U9PT4c5c+ZARYXmEaQ5qtCa4Hu6OMD4UCfAB1HBrUK4lH8DCotKIKZrOER36QyNTi7gwMwDO67Ut6l6phR8dy9veP7374n3x1H9TSaM5aUlfLTv4eUjpmHki9WLoapC/W0KFy9NmTZDLR+WU1pUCF6+/uDoqHroCRm2fbKavTncEA75p1Tw1RLYAY5inZycYdfXG+DapVzo8+Aw/kDAfCV3bsPXH62QXyIev/xffxUfZD/t+AayfzvL0/QR/F4DB8ODI8eJZWEE21V44xp0cPcAORsU28vZmWr5TcEm6r7e4lsKFo4P34IrF6G+vg7Q20j6oC4vLYYt695XqwMdEIG2EFCs4GMjwsLCuHknICAA0tLSuOhXVqpG0m1ppCF5WxN8F6Zzg73uQu6FC1DOvEC6dAkDd2Ybv1pQALV3a6BXTCQUOXvDcSuadKTiieYWHAGjUAsBTR/PvDGXm3jwHI6mcVQtBLQlP/PmHC7seA4Fce+3m+Fq7gUWr+diH9q1G4x5+iXhEiguvAXffLxSPMaIXPCxnIPJCXCFCajclIQj/xdn/7d4PQocCp08BISEwqSX3+ansbzPl/8DcDSOoTXBxwfV7976L54X/+BDB9uFQotlYUBz0VhmFhLMPPKHj6nYoPsoCjsGfMPBNy2pC2mXbj1g9FMv8nT8k7T5E7h+OU88pggRaAsBRQs+NiQ0NJSLfmBgIKSmpsLcuXOhqqqqLW00KK82wfdgI/t+fo4QyuzzOLo/nXaBCYw35Lt2guJ6F4hpXw13C3IgPDAAvPz8oNbRFa5WNML5Ev3MOqYc4U+ZPoPb7BHA8f0/QAqzs8tDaGQ36Bs/nJ/GEWzK8UNiFrnY7Pp6I3dzFDM0RdD+/eiU58XT32/8kL1JXBGPpYKPgvr9hg+YjfyamC6PjH/hNdHmf/LnPXD26AF5Fm6KQZMMhpz0FNj//VYxT2uCP2zcZIjtM0DMv/3z9XDrer54LERw3gHrIgRpPlOwQRPZtHf/IRQP37K3ozuytyNM7PvQcMAHK4Yzv/yk1fTGM9AfIqCDgOIFH+seEhLCzTtBQUFw5swZvjhLR5tMkqRN8N2dHdgErRO/Bwr+ucwc6NipE5yu9hPv260qGxzrGyGCjfr9vDzgTnUj7L6mn2nHlII/+dV32Ei1M69XVuppOJD0rVhHfSKjJj8Hkd3v51nloiq/XjpSTfv1KBzZmyRmkQo+PlTQPKIr4D44Iyc9y7NoemPAhKlz5ouj76Qv/gPX2ehcCLoF3wFemfc3cHFVeQe1Nk+AE7oCw+z0c3D5Qga/jSnYODo6wfQ//lOoNn9oIWcKRMBcBO4JwcfGT5s2DaZPnw41zMY5YsQIc/EQy9Um+JghsD3zwHF3gID6Ej7C9/TxhIDgUMiodIaubIRfcDEPXJiLX1SPHlDW4AJXmOdOAfPk0SeYUvAHjXgMej84VLwtmgx+O/kLM8lkc5OMmKAlgqYVYXL1lz07IP3UMS05gdvd0YSEASc4Ezd9LOaVCv4vuxO554uYqCHi6OQEr/7hf8T5gS/XLYUKNu8gBJyInvTKO/xQ06SsLsF392TzGjOa5zW++791Ot82hHvKP03FRvoWhvfIOHsSzp85YVCd5HWkYyIgJ3BPCP7kyZNh3rx5gH7SmzdvhvXr18vbYfJjXYIv3OzRwHpwqqmEfUdOQUCAH3QK6AhXrt+AAF8f6BrWCcqd3OGnAvWRfQgzBfXxdYTTd1TunEJZwqcpBR/FDQVFsEML98BPdDu8wmzxWSmnmF3/jjRJjE//4wJRdPGkYN8WM0gi0slb9CT56oNlYqpU8NFWfjErXUzTFnl4/FPQrVc/niw366BnjWDOOXfsIJz4abdaMboEX2r7x4s+Xfo3aKhX7yO1wrQcmIpN54go7kUlvw3OR6DH06UL5/lkdPVd85sx5XWgY9sjoHjBl4r9li1buGnHEt3QmuCjSya6ZhaVlgNO4P6WmQuO7IEUFOAPXh4dwJn5dDs5t4NfbtZDX2bzv85G+GnFDVzs7/NxhHQWP1fUAL1YPLCDA5xlD4BCZvoxpeAjJxT9kZOfFd0iNbErvHkdDv2wHW5duyom4yh7+nvN5gYxQY+IfNRtiOCjuyNeh0Fu1pGac/DBIndV1CX46Pv/2DOqSWacrN3w7wV6tEg9iynZYMk4aYtumXLPIOld0RR2IGlbi0luaR6KE4HWCCha8KViv3XrVu6b31qDTJXemuAP7OgIUZ6OcPNuI/drdalRuYw6MT/8skYXNqnLngIsHL9dD4M6MvfNukaorq4BdOdEsxSGWld3cGXZ3Jwc4OtLddDArD6mFnx+I/bH3dMLYnv3h/Bu3dk+8SFqI3fMg6P3nV9+yj1VhGte/3Oz/zq6TKKnirbQrn0Htvq2PRdfFOjfTh4Rsxoi+Hix1GwimHWk5hx8UCV8ula8jxDRJfjSBwnm//Rff9X55iKUKf80FRtpudgvsX36QxiboEVPInnARW7ffbYOKivK5El0TAT0IqBYwZeK/bZt22DFCu3+2Hq1tI2ZWhN8LA7NM9eYfR7DpHBn6MDmcs+xkXo688hBGz+O/HPLGmFYkBN4N1RAbW0tz4uLszDgugJ3d3doaOcOO6/WgzPLn/rVajj4QyJPN9cfNL+g8HXvN1BtG2H0EEFPESGo+bkbscWwoYLff+hIeGDII7w6aLZB881DzJxzf5N3zuFd33N7t1Bf4VOX4KMr6nPvvCtk1eoZI2bQEjEVGy3F80nlsK4x0ItNGgeGhInZ0NMKPa4oEAFDCChS8KVin5CQAMuXG7a3vCFAhGv0EXwhL34OYOYdXF175FYDlNU2wqhOThDAJndLaxqhvqIYUOQPn0yBkvIKttDIkW0vUAcxkV3Yv1D+IHD28OGj//TMC/DOm69LizZrXOqrjzf67P2/i/7sT7z8lig2cs+btlTKUMGXLhzDlabb/rNKzTvn8+X/1LjvjS7BR//5ae/9Q3zD0fbQENqHo25vP38+f3T9Up44ujYVG+E+uj6lHlDyh7Ku6yiNCMgJKE7wpWK/fft2WLZsGdtDRD8PF3njjDluq+DL79WT2eZxLx2XWpWp59fUTKhji5XcPdzAA00fbC1BWVkFewtwgoF9evDLHdq7Q+KOHfDRqn/Li2vzMe53I4yO69ibBU584upNecBthH/31jzx9BerFol74ki3HkCTD47+0VyjKeAPjqBvOgZcwJQm8egxVPCxLKlr6Z5tX4iLkC5nZzD3zk2YpUXQJfiYGV0+0fUTA06O4mpeTYu7PL194Rm2QEuYkN7L9gG6mJnGrzMFm05hERDV9EMtcjMYv0nTn/vY9hGD2TYSGNCss3nNkqYU+iACbSOgKMGXin1iYiIsXbrUKmKPCI0VfCzjsRAnqCm+CTfvlMIttr9/DNtyodbZDTKqXKGLazV4NlRBZt4V7tUT3ikAGt18YMbsOSb5iUPcEXPqnL+IYpV7PrXFJmI42h02bhLEMNs+BhQ/HOELAb17Xpj1Z7EMnOTc9p/VbDOxZhdJzCvfHkD+C1PGCD7atIeNm8KrhPUT9vPBrRhwUzFNoTXBl3vq4NwELharlizow10zJ73ytriRGa5U/mLVYnY71eDDFGxw0dvYZ18Rm4CrjzPPnRKPMYIbs02c+iZfPYzHV/MuwA9ffY5RCkSgzQQUI/hSsU9KSoIlS5ZYTeyRojGC34l53QSzf6FOlbxD9h09BZ07B4GbXzCcq/IQO+lBjwq4xfZuyc8vgIcH9uX2/B/2HYBjB/fD0aNHxXyGRh6ewFwb71e5NmIZOIrFbRHQq8WFPRC6skVV0snB02wVJ+6cKQ34MBj+uEpwhfO4PQNO4uIeOEGh4WplYNrXH61U29nRGMFH4UV7uTDKxjrg1gMb/v1Prd+P1gQfyxg8ZiLc98AgjIoBJ4FLCm+Dt39HcYWykKhpHYIp2Lww809qu4/iXj5X87LZ1tN3+Xm8h7BIDOuygy0ywzcoCkTAEAKKEHyp2CcnJ8PixYsN8pwwBIC2a4wR/LGdncDHVbX1Apb/8/Ez0DUiFC65BPPtF4R7+jjVQpeaAsi5dBVGDFIJs4eHB/8tgDfeaN4mWMjf1k83d08Y/fSL/JefWrtWJfb7WLaW5rO+8Q9D3PBHWyuCP1DQi0S+P44xgo83HcW2bYhk2zcIobX5BH0EHx8gw5mvv/S3b4Xy5Z/ChLH8PB4bywa3Q8a9iDStlZDeD01quLU0+uVTIAKGErC64I8dOxbmz5/PJ8V27doFCxcutLrYI0xjBB9H+Dhh282tjnviHDhxjo/wO7IJwGPlzdsC92tfCmWFN9gI/waMGjwAXNly/+R9P8OBPT/wLSQM7VT16xzYfu+DodfAIWojScyDInKHjWqP/ZistjWB+vWqI9xXBr1mhH3tpXlQ4E8f3g/nT59gZbZcxDThxdfZ7pwR/BJ9F15Jy5cvTsLJW5zE1Rak8xLyNQHya9Ac1W/wCNF0I6QLbFDstW0bLeQ1hg2WgSN4XEyGexJJd8fENDSj3bh6ma+TkJvSMJ0CEWgLAasLfnBwMKxbtw5SUlJgwYIFihB7BGiM4AsdMJqtxHVkK3EvX78Ft9gPs8dGhEGFgyvk1bpB9w7V7P/mKsi9fBUC2C98Bfl5gatvIPx+lmls+EIdpJ+4d4tPxwBAn/nS4jtq2xVI8+mKozjhZGY7Zt/HX6lC+7ct/GYsjrDxx1jQhFRWUqTzh1e08TEFGyzDLyCY3wIncmmFrTbadN4QAlYXfKw07nlfVFSkGLHHOuEPi+M/Q8OoQX0h7r5u0I4tqsJw4tx5qGWjX08Pd/Bwaw/lVXehoryS+d47QVzv7jxP2d1aOHzkCKz7N+15zoHQHyJABExKQBGCb9IWKaSwlStXQq9eveDatWuAdnn0w8/KuwqZuZfA2dmJuUg2QCz7sZRuzLaPC7LKysr4VtC4GyjuG0SBCBABImBqAiT4pibaVF737t0hJyeHi/mGDRv4W4ywshazSFfd4tvN1KlT2YPAGbp16wbnz9PEnJm6hYolAnZNgATfzN3fjrk/7t69G7Kzs7kbYZcuXfheOjhBe/HiRfDy8mI7bQYATl4Le+yYuUpUPBEgAnZMAP3w6J+ZGPTs2bOR7QPU+Pzzz3PGb775ZuPPP//c+Oqrr/LjF154oZFtHdEYExNDfWCmPqDvN/3/Td8B1XeARvgWftLHxcXB66+/Dp988gmcOHHCwnen2xEBImDPBEjw7bn3qe1EgAjYFQESfLvqbmosESAC9kyABN+ee5/aTgSIgF0RIMG3q+6mxhIBImDPBEjw7bn3qe1EgAjYFQESfLvqbmosESAC9kyABN+ee5/aTgSIgF0RIMG3q+6mxhIBImDPBEjw7bn3qe1EgAjYFQESfLvqbmosESAC9kyABN+ee5/aTgSIgF0RIMG3q+6mxhIBImDPBEjw7bn3qe1EgAjYFQESfLvqbmosESAC9kyABN+ee5/aTgSIgF0RIMG3q+6mxhIBImDPBEjw7bn3qe1EgAjYFQESfLvqbmosESAC9kyABN+ee5/aTgSIgF0RIMG3q+6mxhIBImDPBEjw7bn3qe1EgAjYFQESfDN291P+XgaVvq2w1KDr6CIiQASIgC4CJPi66BiRdl+HdvC3sACDSng266pB19FFRIAIEAFdBBQh+HFxcZCbmwuFhYW66npPpf0tNADuc2tnUJ1J8A3CRhcRASLQCgGrC358fDwsWrQI8vPzYcaMGVBUVNRKlZWfLB/dp1dWwz+v3tJZcTT/CCYgUwq+o5MjODs78XvX1dVDQ32DznooIdG1nQuvRmNjI9TW1CmhSlQHImATBKwu+LGxsbBq1Srw9PSEvLw8LvrFxcX3NFz56P6fV25BelW1zjaZS/DHTI6D+/pE8HsX3i6FjWt366yHEhLn/v1pAPxmsrDlk31QcPWO6oD+EgEiYBQBqws+1j4mJgZWrlwJ3t7ekJOTAzNnzoSSkhKjGmbsxcJo25By5NfqMwmLbwWCCciUI3yp4JcWV8KnK3ca0iSLXiMV/O++OAQXswssen+6GRGwVQKKEHyEGx0dDatXr+ain52dDbNmzbKq6MtH6Zb8ApDgN4/wSfAt+c2je9k6AcUIPoKOioriou/j4wNZWVkwe/ZsKC21jouiuQS/2+Sn4U5GOhSeT9P63VKS4Ds5OwLa1KsqdJuktDaGJbi4OgPa4+tq63VlE9NohC+ioAgRMCkBRQk+tiwyMhLWrFkDvr6+kJmZyUf65eXlJm20PoWZQ/D9e/SEQX/+O7/98cX/0Cr6xgo+TtS+/d5Efh+csMVjIdRU1wpR+HHHKcj87Yp4LERCwjvCw4/1hYAg7+ZrGwFqamoh/dwlOPxjaquTqf0Hx0LPPl3A29cDnF2aJ43LS6vgtzN5cPJQhnA7/jlqQn+IvT+Mx4VJWzzASWacbMaAJqlNH+zhcfpDBIhA2wkoTvCxCREREXyk7+/vDxkZGXykb2nRN7fgYzu1ib6xgo+j8ll/eRJvoTP89MMZOHs8Wy3PI+MfgD4DotTOyQ/Qc+bLj3+EO7fL5EmA935y6nDo3KVjizTpiVsFxbBt4wG4W1nDTz/58jAIjwySZmkRr75bC+uXbG9xnk4QASKgHwFFCj5WPTw8HNauXQso+unp6TBnzhyoqKjQrwokic8AAAmKSURBVFUmyGUOwcdqSUf5eHzhu2/4P4wLwVjBxxH9W++qRvgubHQtjvDZKL26aYSPJpbEr36B/Eu3hduCJrFvaFCZYlzbOYv5MFJf1wAfvp8I0jcGPP/c6yMhuLMfRnlAM07xnXJuFvLydhO9bzDx+pVC+OrT/TzfSBzh91SN8Nu1V7llYgI+XLAOGG4WFMG2zw/wOP0hAkSg7QQUK/jYlLCwMG7eCQgIgLS0NC76lZWVbW+lAVeYUvAFkZeKO5p28DwG6Xk8NlbwsQwh6Oul4x/oDS+9PVoUZBTqxK1H4FKTh0wHtohsxOP9RFHG8q9cvKkmwPhgmfWXKeDggF8rgJzMa7DjqyPcfo/HeB5H8mERgXgIwHQcHxpVbJ2CNJANX0qD4kTAdAQULfjYzNDQUC76gYGBkJqaCnPnzoWqqirTEdBSkqkEXxB74TZSM4420beG4D/9ysMQGhHAq4kj6s0f7YXbN1q6xkrzoWCvWZgg2tjvfyASHp04gJeBbxCr/vmtKPZC+/GhgG8BHTq48lPbNhzgbwBCOn6S4EtpUJwImI6A4gUfmxoSEsLNO0FBQXDmzBm+OMt0CDSXZArBl4u9fCSPd9Yk+tYQ/Fl/fRKcmiZ3T/6SAYf3pmoEg6P0OX97SnwT+HnXWThz7ALP24NN0j42eaB43Rcf7gW01bc1kOC3lRjlJwL6EbgnBB+bMm3aNJg+fTrzFKmBESNG6Nc6I3IZK/j6iL1QPbno9//XCiHJ6E99TDr+AV7w0u/HiPfa+tlPcO1ys21fTGiKvP3eE9DeTTVCz0q7Aju/OcZT0P1yxn9PFrPjKP/C+Xw4cfB8m4SfBF9ESBEiYFIC94TgT548GebNm8dtwJs3b4b169ebFIKmwowVfLmI4+heHvChIPjjo38+/sN8lhb8qO4hMPHZwc3VU82RNh/LY/itaQr57MHwNXtACGH87x6Cbj1ChUPxs565VxYxr55M9oA4fSRLNAOJGSQREnwJDIoSARMSULzgS8V+y5Yt3LRjwvZrLcoYwddH7KUCL38YWNqk0+/BbtzvXisMHQlo55f7xo9+YgD0YPv3ODpKngySMnDkjxO+CZsOQWOTB44kmWz4UhgUJwImJKBowZeK/datW7lvvgnbrrMoQwW/LWKPFcARPk7kCgFH/Y9+b7oNzvQx6XTvHQ5jpwwSqgA4atcVvH3cobysCnDUjiYduS8/XuvAxL7vwGi4v18k+Pp7cv98eZnorrlx/W7u4ilNoxG+lAbFiYDpCChW8KViv23bNlixwnR2bX3wGSL4xoo91mvcxq/B68F4faqoVx59BB/95tFzRgifrUqGkiLTrnlA0e/3UDfo2TdC3K4Z77dv52lIOZkj3Jp/kuCr4aADImAyAooUfKnYJyQkwPLly03WYH0LaqvgS8X+6qGfIf/wAfAKj1C7nbObG7fT40n5yB7PCWUs/uRTwH+mCPoIPm59MPO/p4ieNwd2n4XTR1WeN6aog7QM3DbhnT89IfrqX8op4KYdaR6p4G/ffBjyLlyXJlOcCBABAwkoTvClYr99+3ZYtmxZC19uA9vapsvaIviCUOt7A01ijzZ9v+738SJw7/zH35mhb3E6842eFMdH1ZjpblUNfPCv7zXmf3XmWPDx9+BpNdV1fBtlzK8pPPHCEPDyYqtmWTh9/AKknc7j8bgh3aFrTCcex8lZTaYeTHxl5mPczIPxG9eK+DYNGBeCVPD3J5+BcyfUt38Q8tEnESACbSOgKMGXin1iYiIsXbrUKmKPCPUVfFOIveDCibZ8LA+Dqcw6g4b3gPgR9/My8U/CpoNwKeeGeCxEpIum8Bxucvb52l1qm6Sh2+XE5wazPW+aVsqyfDhhKyzQmvLSMOjStWk/nEbge+Vcybsp3IJ/hrP0J6cOE98m0s5ehD3bT6rlmTl/irjhGv5oy5cf/qjTq0ftYjogAkRAKwHFCL5U7JOSkmDJkiVWE3ukpY/gm0Ls8V5COTjyR/HHYCqzThgT56deHs7LFP7g/jdlJZVwcE+K2o+LTGVbK3RkO2RKQyXbFrnwVgm4ebRnO5h6NO/LwzJdY3vhbG3aCwev4dszvMO2ZxACE/1Sdh+8vrL8LgR08oXAYB8hlffvx8uTeJp4kkWmzR7Hdtl0bz7FysEJ3qI7ZYAmHgpEgAgYRkARgi8V++TkZFi8eDHbMMu6v73amuALIq0vdk1mHOFawUVTOMbPQ6dPm8ys00JAm24k3y0T7esvvDkKfPxUph1pfeTxO/hziev3tHCrHP5YH3hgUIw4gpdfJxzjpmjfbT6ktnmbkBbJzEKTnh8iHIqftFumiIIiRMAgAlYX/LFjx8L8+fP5JN6uXbtg4cKFVhd7JKlL8AUTTFuIS/fQkV+nSfBNNcLHe+Ho/LEpA/mmZVLfeLngC/UaNqYP9HqgK9vhUn2HTExHu/6xA+nidgrCNdJP9PoZ/8xD4OHVQZycFdJxb/sb+UWw/cvDLXbaFPLgZ0zPUBg07D7oyDZ1E37fVtcchPRaihMBIqCZgNUFPzg4GNatWwcpKSmwYMECRYg9opL+xqwc3XtLlkL3Xr3lp7UeL/3Te5CRmqI1HRM+27lLLR0nbXGUb+qAHjm4TXENG2GjnV5XQLNKADPB4HbF+OMjBfl31Gz6uq4V0vBtISjEl/vsX869qVPkhWukn1hf9PvHDd3QDCX8GIo0D8WJABHQj4DVBR+riXveFxUVKUbsW0O3c/1aGPrAA61l4+ltEW4sc8gD/eDw6TNmEXu9KkyZiAARsFkCihD8e43un1+bDvivtdAWsW+tLEonAkSACBhLgATfQIKlx47ovJLEXiceSiQCRMAKBEjwDYSubZRvSu8aA6tGlxEBIkAENBIgwdeIRb+TaHP/02vTxMxoezfVlghioRQhAkSACJiIAAm+iUBSMUSACBABpRMgwVd6D1H9iAARIAImIkCCbyKQVAwRIAJEQOkESPCV3kNUPyJABIiAiQiQ4JsIJBVDBIgAEVA6ARJ8pfcQ1Y8IEAEiYCICJPgmAknFEAEiQASUToAEX+k9RPUjAkSACJiIAAm+iUBSMUSACBABpRMgwVd6D1H9iAARIAImIkCCbyKQVAwRIAJEQOkESPCV3kNUPyJABIiAiQiQ4JsIJBVDBIgAEVA6ARJ8pfcQ1Y8IEAEiYCICJPgmAknFEAEiQASUToAEX+k9RPUjAkSACJiIAAm+iUBSMUSACBABpRMgwVd6D1H9iAARIAImIvD/uu3srF21G70AAAAASUVORK5CYII=;" parent="1" vertex="1">
          <mxGeometry x="-358.51" y="95" width="198.51" height="280" as="geometry" />
        </mxCell>
        <mxCell id="gqm8zF_rN9MROJ56jwGY-86" value="" style="image;sketch=0;aspect=fixed;html=1;points=[];align=center;fontSize=12;image=img/lib/mscae/Azure_Pipelines.svg;labelBackgroundColor=#000000;strokeColor=default;fontFamily=Helvetica;fontColor=#D8E8F5;fillColor=default;" parent="1" vertex="1">
          <mxGeometry x="335" y="102.97999999999999" width="50" height="50" as="geometry" />
        </mxCell>
        <mxCell id="gqm8zF_rN9MROJ56jwGY-87" value="Publish Pipelines" style="text;html=1;align=center;verticalAlign=middle;resizable=0;points=[];autosize=1;strokeColor=none;fillColor=none;fontSize=14;fontFamily=Helvetica;fontColor=#000000;" parent="1" vertex="1">
          <mxGeometry x="300" y="160" width="130" height="30" as="geometry" />
        </mxCell>
        <mxCell id="gqm8zF_rN9MROJ56jwGY-88" value="" style="image;sketch=0;aspect=fixed;html=1;points=[];align=center;fontSize=12;image=img/lib/mscae/Azure_Pipelines.svg;labelBackgroundColor=#000000;strokeColor=default;fontFamily=Helvetica;fontColor=#D8E8F5;fillColor=default;" parent="1" vertex="1">
          <mxGeometry x="383" y="104.99999999999999" width="50" height="50" as="geometry" />
        </mxCell>
        <mxCell id="lQ1aieZwKwsRw9DrgaOx-1" value="" style="endArrow=none;html=1;rounded=0;strokeWidth=2;dashed=1;strokeColor=#D8E8F5;dashPattern=1 1;" edge="1" parent="1">
          <mxGeometry width="50" height="50" relative="1" as="geometry">
            <mxPoint x="-360" y="82" as="sourcePoint" />
            <mxPoint x="-160" y="82" as="targetPoint" />
          </mxGeometry>
        </mxCell>
        <mxCell id="lQ1aieZwKwsRw9DrgaOx-2" value="" style="shape=image;html=1;verticalAlign=top;verticalLabelPosition=bottom;labelBackgroundColor=#ffffff;imageAspect=0;aspect=fixed;image=https://cdn3.iconfinder.com/data/icons/arrows-set-12/512/refreshIc-128.png" vertex="1" parent="1">
          <mxGeometry x="-141" y="151.5" width="42" height="42" as="geometry" />
        </mxCell>
        <mxCell id="lQ1aieZwKwsRw9DrgaOx-6" style="edgeStyle=orthogonalEdgeStyle;rounded=0;orthogonalLoop=1;jettySize=auto;html=1;strokeWidth=2;startArrow=classic;startFill=1;endArrow=none;endFill=0;exitX=-0.002;exitY=0.059;exitDx=0;exitDy=0;exitPerimeter=0;" edge="1" parent="1" source="lQ1aieZwKwsRw9DrgaOx-8">
          <mxGeometry relative="1" as="geometry">
            <mxPoint x="440" y="130" as="targetPoint" />
            <mxPoint x="578" y="47" as="sourcePoint" />
            <Array as="points">
              <mxPoint x="440" y="40" />
            </Array>
          </mxGeometry>
        </mxCell>
        <mxCell id="lQ1aieZwKwsRw9DrgaOx-4" value="" style="verticalLabelPosition=bottom;html=1;verticalAlign=top;align=center;strokeColor=#006EAF;fillColor=#1ba1e2;shape=mxgraph.azure.cloud;fontColor=#ffffff;" vertex="1" parent="1">
          <mxGeometry x="590" y="-14.5" width="32.5" height="17" as="geometry" />
        </mxCell>
        <mxCell id="lQ1aieZwKwsRw9DrgaOx-7" value="Services" style="text;html=1;align=center;verticalAlign=middle;resizable=0;points=[];autosize=1;strokeColor=none;fillColor=none;" vertex="1" parent="1">
          <mxGeometry x="495" y="40" width="64" height="26" as="geometry" />
        </mxCell>
        <mxCell id="lQ1aieZwKwsRw9DrgaOx-11" value="&lt;b style=&quot;font-size: 16px;&quot;&gt;Azure Cloud&lt;/b&gt;" style="text;html=1;align=center;verticalAlign=middle;resizable=0;points=[];autosize=1;strokeColor=none;fillColor=none;fontSize=16;" vertex="1" parent="1">
          <mxGeometry x="622.5" y="-21.5" width="112" height="31" as="geometry" />
        </mxCell>
        <mxCell id="lQ1aieZwKwsRw9DrgaOx-12" value="" style="image;aspect=fixed;html=1;points=[];align=center;fontSize=12;image=img/lib/azure2/app_services/App_Service_Plans.svg;" vertex="1" parent="1">
          <mxGeometry x="602" y="24" width="29" height="29" as="geometry" />
        </mxCell>
        <mxCell id="lQ1aieZwKwsRw9DrgaOx-13" value="" style="image;aspect=fixed;html=1;points=[];align=center;fontSize=12;image=img/lib/azure2/app_services/App_Service_Domains.svg;" vertex="1" parent="1">
          <mxGeometry x="640" y="24" width="36.25" height="29" as="geometry" />
        </mxCell>
        <mxCell id="lQ1aieZwKwsRw9DrgaOx-14" value="" style="image;aspect=fixed;html=1;points=[];align=center;fontSize=12;image=img/lib/azure2/iot/Function_Apps.svg;" vertex="1" parent="1">
          <mxGeometry x="689.63" y="24" width="32.87" height="29" as="geometry" />
        </mxCell>
      </root>
    </mxGraphModel>
  </diagram>
</mxfile>
